<svg width="185" height="278" viewBox="0 0 185 278" fill="none" xmlns="http://www.w3.org/2000/svg">
<rect width="185" height="278" fill="#E5E5E5"/>
<path d="M0 264.329C0 256.813 0.225406 250.658 0.500903 250.658C0.776399 250.658 1.60289 249.751 2.33755 248.644C3.0722 247.537 5.02572 245.983 6.6787 245.183C8.33168 244.389 9.98466 243.375 10.352 242.935C10.7193 242.495 12.1759 241.775 13.5892 241.328C15.0017 240.875 18.0191 239.241 20.2939 237.687C22.5687 236.126 25.4699 234.653 26.7408 234.399C28.0125 234.153 31.1401 232.832 33.6927 231.465C37.7741 229.284 38.5568 228.544 40.1938 225.316C41.2169 223.302 42.9741 220.822 44.0981 219.801C45.2221 218.781 45.9688 217.674 45.7578 217.334C45.148 216.347 46.1425 213.312 47.0748 213.312C48.0446 213.312 50.3915 208.131 51.0173 204.603C51.5689 201.495 55.4466 195.053 56.9373 194.766C57.8983 194.586 58.1047 195.04 58.1047 197.334C58.1047 201.909 61.5743 208.284 66.8738 213.452C69.3984 215.907 71.4621 218.081 71.4621 218.281C71.4621 219.194 78.6283 226.65 79.5099 226.65C79.8572 226.65 80.1444 226.95 80.1444 227.317C80.1444 227.684 80.9058 227.984 81.8408 227.984C83.0563 227.984 83.4838 228.304 83.3435 229.084C83.2366 229.691 83.5238 230.311 83.9847 230.471C84.4455 230.631 84.8195 230.438 84.8195 230.045C84.8195 229.644 85.5942 229.318 86.5359 229.318C87.4843 229.318 88.6063 228.937 89.0404 228.471C90.5365 226.85 92.6269 223.642 93.8157 221.122C95.0045 218.621 99.8466 214.646 101.717 214.646C103.74 214.646 112.409 209.725 115.027 207.084C116.537 205.557 117.946 204.31 118.16 204.31C118.874 204.296 130.649 193.759 132.419 191.539C133.968 189.598 135.137 183.143 134.589 179.515C134.048 175.887 135.17 175.687 138.089 178.895C139.224 180.142 140.707 181.569 141.381 182.062C142.063 182.562 143.125 183.77 143.746 184.743C144.367 185.724 147.138 187.764 149.897 189.285C152.655 190.805 155.093 192.332 155.307 192.679C155.52 193.026 157.45 194.18 159.594 195.247C165.859 198.348 169.833 200.728 171.977 202.676C174.875 205.297 179.029 207.737 182.222 208.691L185 209.525V278H0L1.67161e-06 264.329H0ZM80.3514 192.839C72.1901 190.638 69.6522 189.685 67.7888 188.131C64.7146 185.57 62.6295 182.282 62.3243 179.515C62.1727 178.134 61.6865 176.767 61.245 176.474C60.6546 176.087 60.7608 175.7 61.6464 175.027C62.54 174.34 62.6262 174.02 61.9803 173.786C61.3131 173.546 61.2924 173.273 61.8929 172.639C62.323 172.179 62.5166 171.392 62.3223 170.885C62.0865 170.272 62.4919 169.952 63.5432 169.918C64.4802 169.885 64.7119 169.725 64.1155 169.532C63.5645 169.345 62.6629 169.045 62.1119 168.865C61.3118 168.605 61.4193 168.285 62.6455 167.284C63.4897 166.597 64.5416 166.171 64.9831 166.344C65.8507 166.671 65.9208 169.558 65.1086 171.512C64.364 173.306 65.7979 174.493 67.4616 173.453C68.1829 173.006 70.7274 172.633 73.1251 172.633C75.5762 172.633 77.4729 172.346 77.4729 171.966C77.4729 171.599 77.9271 171.299 78.4747 171.299C80.5518 171.299 79.3363 170.178 75.3558 168.411C72.4839 167.138 71.4554 166.377 71.943 165.884C72.4305 165.397 73.3188 165.537 74.8949 166.364C76.3042 167.097 79.2094 167.651 82.7224 167.838C87.324 168.091 89.1206 167.871 92.9007 166.611C95.4253 165.77 98.0834 164.53 98.8114 163.856C100.388 162.389 101.095 162.329 102.124 163.563C102.718 164.277 102.665 164.723 101.87 165.517C101.309 166.077 100.848 166.824 100.848 167.164C100.848 167.511 99.4191 168.178 97.676 168.651C93.5218 169.772 93.3015 169.925 94.1964 170.999C94.9578 171.912 98.798 171.639 99.5126 170.612C99.6996 170.352 101.156 170.138 102.758 170.145C105.624 170.152 108.008 168.558 105.837 168.084C104.742 167.844 104.475 166.631 105.523 166.631C105.891 166.631 106.191 165.864 106.191 164.93C106.191 163.956 106.479 163.396 106.859 163.63C107.227 163.856 107.527 163.576 107.527 163.003C107.527 162.436 107.774 161.963 108.075 161.963C109.05 161.963 111.561 167.151 111.521 169.085C111.494 170.118 111.614 171.792 111.781 172.799C111.948 173.806 111.808 174.8 111.468 175.013C111.12 175.22 111.073 175.747 111.354 176.18C111.641 176.614 111.868 177.568 111.868 178.301C111.868 179.201 112.249 179.575 113.037 179.441C113.678 179.335 114.206 179.595 114.206 180.022C114.206 180.615 114.433 180.615 115.147 180.022C115.775 179.502 116.229 179.468 116.517 179.928C117.038 180.769 119.549 179.355 119.549 178.221C119.549 177.801 120.277 176.981 121.165 176.401C122.06 175.814 122.995 174.653 123.249 173.82C123.503 172.986 124.344 171.612 125.119 170.772C125.887 169.925 126.528 168.651 126.541 167.944C126.568 166.284 127.65 166.117 128.538 167.631C129.046 168.485 129.006 168.891 128.398 169.111C127.937 169.278 127.563 170.065 127.563 170.859C127.563 174.073 115.248 186.557 112.015 186.617C111.361 186.63 110.653 187.091 110.439 187.637C110.232 188.191 109.704 188.638 109.284 188.638C108.856 188.638 107.387 189.238 106.018 189.972C104.649 190.705 102.939 191.305 102.224 191.305C101.51 191.305 100.768 191.572 100.568 191.892C99.6262 193.406 84.9998 194.093 80.3514 192.839V192.839ZM114.206 181.969C114.206 181.602 113.905 181.302 113.538 181.302C113.171 181.302 112.87 181.602 112.87 181.969C112.87 182.336 113.171 182.636 113.538 182.636C113.905 182.636 114.206 182.336 114.206 181.969ZM63.1438 163.13C63.3936 162.309 63.8644 161.349 64.1903 160.996C64.9651 160.169 64.9604 153.486 64.185 153.006C63.2453 152.426 64.4642 148.231 66.2086 146.044C67.0809 144.95 68.6036 143.703 69.6054 143.27C70.6005 142.836 71.5957 141.929 71.8094 141.256C72.3103 139.669 76.1639 137.288 78.2276 137.288C79.1092 137.288 80.9792 137.901 82.3751 138.655L84.9197 140.015L87.9585 138.008C90.8437 136.101 95.5054 135.314 95.5054 136.734C95.5054 137.041 95.846 137.288 96.2668 137.288C96.6809 137.288 97.6626 137.968 98.4441 138.788C99.2255 139.615 100.895 141.042 102.151 141.956C103.406 142.876 105.463 144.604 106.726 145.804C108.956 147.925 109.003 148.071 108.556 151.806C108.081 155.807 106.986 157.308 104.562 157.288C103.767 157.281 103.486 157.068 103.901 156.788C104.816 156.161 105.644 153.96 104.969 153.96C104.689 153.96 104.101 152.973 103.66 151.766C102.558 148.732 99.4325 147.638 91.8321 147.631C88.5262 147.631 85.4673 147.398 85.0332 147.118C84.5991 146.831 82.9561 147.044 81.38 147.585C79.2294 148.325 77.8202 148.411 75.6563 147.931C73.1652 147.371 72.4906 147.484 70.487 148.792C67.5684 150.699 66.7803 152.393 67.6486 154.9C68.1695 156.394 68.1094 157.001 67.3614 157.568C66.8338 157.968 66.3536 159.002 66.2968 159.862C66.1746 161.696 64.3853 164.63 63.3875 164.63C62.9748 164.63 62.8753 164.023 63.1438 163.13V163.13ZM86.8231 161.416C86.8231 161.089 84.9464 160.649 82.6489 160.455C78.5949 160.102 74.4942 158.568 73.1318 156.901C72.7644 156.447 71.8628 155.974 71.1282 155.847C69.0778 155.487 69.8325 154.393 72.8179 153.4C75.4159 152.539 75.5628 152.566 76.8718 154.233C77.6265 155.187 78.6684 155.961 79.1894 155.961C79.717 155.961 80.1444 156.267 80.1444 156.634C80.1444 157.708 88.052 157.234 91.7386 155.941C93.5886 155.287 95.4653 154.253 95.9195 153.633C96.6408 152.653 97.0682 152.613 99.2989 153.326C100.701 153.78 102.271 154.267 102.785 154.407C103.513 154.607 103.44 154.927 102.451 155.881C101.483 156.808 101.129 156.881 100.969 156.194C100.848 155.7 100.454 155.294 100.087 155.294C99.7197 155.294 99.5995 155.854 99.8199 156.541C100.147 157.581 99.9334 157.734 98.5042 157.461C97.4422 157.254 96.3135 157.568 95.5255 158.281C94.8242 158.915 93.9226 159.228 93.5218 158.975C93.1211 158.728 91.4514 159.315 89.8085 160.275C88.1655 161.236 86.8231 161.749 86.8231 161.416V161.416ZM41.7238 147.851C39.9647 147.031 36.9058 140.456 36.4998 136.621C36.3254 134.974 35.6883 130.619 35.0845 126.951C34.4808 123.283 33.8042 118.635 33.5812 116.615C33.3581 114.601 32.6361 112.046 31.9769 110.946C29.58 106.951 28.834 104.871 28.3831 100.943C28.13 98.7421 27.7487 95.7411 27.5349 94.274C26.5725 87.6785 27.1275 78.5329 29.0931 68.6017C29.6381 65.8508 30.167 63.1299 30.2699 62.5557C30.4328 61.6408 33.6353 55.4241 35.3998 52.5965C35.7431 52.0463 36.5846 50.3958 37.2698 48.9286C39.4137 44.3372 45.6249 37.6937 50.7321 34.5293C59.178 29.2963 64.9277 26.6134 67.8556 26.5394C69.8726 26.4887 71.3218 25.7111 76.1305 22.0868C79.7904 19.3319 82.0211 19.3083 84.8996 21.9943C86.97 23.9232 87.3708 24.0406 90.5966 23.6611C98.5576 22.7268 111.628 26.5174 117.525 31.4703C118.534 32.3159 121.746 34.2492 124.665 35.7671C130.829 38.9701 135.758 43.773 138.516 49.2648C139.531 51.2807 140.754 53.3801 141.241 53.9303C141.729 54.4804 142.43 55.9809 142.811 57.2647C143.191 58.5484 144.26 61.4233 145.195 63.6534C147.078 68.1462 148.828 77.9387 148.948 84.6042C149.049 90.206 148.227 99.2756 147.619 99.2756C146.971 99.2756 145.455 102.697 145.903 103.143C146.103 103.344 146.264 103.17 146.264 102.77C146.264 101.69 148.281 99.8758 148.988 100.309C149.683 100.743 149.683 109.245 148.988 112.28C148.574 114.087 148.481 114.147 148.053 112.893C147.212 110.433 147.052 104.991 147.78 103.61C148.414 102.417 148.367 102.377 147.372 103.197C146.764 103.697 146.237 104.897 146.197 105.864L146.13 107.612L145.649 105.944L145.162 104.277L144.641 105.851C144.36 106.718 144.026 108.819 143.899 110.519C143.779 112.226 143.492 114.967 143.258 116.615C142.864 119.422 142.904 119.535 143.886 118.322C145.081 116.841 145.943 117.381 146.597 120.022C146.938 121.396 146.638 122.083 145.142 123.357C142.537 125.577 140.273 131.139 140.239 135.367C140.239 136.241 139.364 137.941 138.303 139.142C137.06 140.549 136.499 141.789 136.726 142.643C136.927 143.423 136.74 143.957 136.252 143.957C135.805 143.957 135.604 143.517 135.811 142.976C136.018 142.436 135.718 141.729 135.144 141.409C134.315 140.949 134.055 139.309 133.888 133.567C133.768 129.572 133.915 125.998 134.208 125.631C136.058 123.277 136.807 115.868 135.905 108.945C135.711 107.478 135.424 103.01 135.27 99.0088C135.11 95.0075 134.689 91.5531 134.335 91.333C133.975 91.1129 133.761 89.8859 133.861 88.6055C134.095 85.5578 133.701 84.6042 132.205 84.6042C131.53 84.6042 130.796 84.3041 130.569 83.9373C130.342 83.5705 130.462 83.2704 130.829 83.2704C131.757 83.2704 128.839 80.2748 127.396 79.7433C126.154 79.2871 125.773 77.938 126.889 77.938C127.249 77.938 127.51 77.2631 127.463 76.4375C127.423 75.6126 127.597 74.4422 127.85 73.838C128.111 73.2332 128.044 72.5649 127.697 72.3535C127.356 72.1421 127.196 69.9361 127.349 67.4513C127.577 63.6041 127.49 63.0972 126.728 64.0382C126.081 64.8418 125.526 64.9678 124.691 64.5023C124.064 64.1496 123.249 64.0455 122.881 64.2703C122.521 64.495 122.22 64.2289 122.22 63.6787C122.22 62.5744 121.018 61.5794 120.41 62.1836C120.197 62.395 120.384 63.0012 120.824 63.532C121.492 64.3323 121.385 64.4323 120.203 64.1236C119.422 63.9188 118.514 63.0605 118.193 62.2156C117.872 61.3713 116.997 60.355 116.256 59.9575C115.147 59.3634 114.974 59.4154 115.294 60.2503C115.829 61.6454 115.094 61.5227 113.384 59.9322C111.675 58.343 110.866 58.2363 110.866 59.5988C110.866 60.1489 111.214 60.5991 111.648 60.5991C112.075 60.5991 112.222 60.8005 111.975 61.0466C111.728 61.2926 110.853 60.8872 110.032 60.1456C107.534 57.9042 106.559 57.5154 107.12 58.9892C107.507 60.0136 107.44 60.1009 106.766 59.432C106.305 58.9739 105.363 58.5984 104.675 58.5984C103.687 58.5984 103.527 58.9119 103.901 60.0989C104.154 60.9245 104.702 61.8201 105.109 62.0896C105.624 62.4243 105.57 62.5831 104.956 62.5897C103.954 62.6011 100.481 60.7951 98.6377 59.3013C97.9765 58.7632 96.6208 58.221 95.6323 58.0969C94.6439 57.9729 93.4617 57.3774 93.0009 56.7738C92.2996 55.8536 92.1661 55.8375 92.1661 56.6785C92.1661 57.2293 92.7805 58.337 93.5285 59.1399C94.2765 59.9422 94.724 60.5991 94.5236 60.5991C93.8023 60.5991 91.2177 58.9119 89.6682 57.4314C87.8984 55.7375 87.3975 55.6221 86.3623 56.6605C85.8547 57.1626 85.828 58.1156 86.2755 59.7241C87.1036 62.7218 86.3823 63.504 85.3338 60.7398C84.5256 58.5938 82.6957 57.2893 82.2749 58.5551C82.1146 59.0406 81.6338 59.0359 80.7054 58.5404C79.6635 57.9849 79.0892 58.0749 78.1341 58.9405C76.9653 59.9936 76.9186 59.9775 77.2659 58.6598C77.6933 57.0073 76.8384 56.9012 72.2969 58.0436C70.0729 58.6031 69.1312 58.6171 68.9576 58.0916C68.6838 57.2767 64.1857 57.7362 63.1471 58.6858C62.7985 59.0046 60.9538 59.2653 59.0491 59.2653C53.8844 59.2653 48.7205 62.4664 46.6968 66.9218C45.7277 69.0558 45.4025 69.3446 45.0372 68.3936C44.6184 67.3046 44.4882 67.2952 43.3982 68.2802C42.6248 68.9798 42.1279 69.0918 41.9656 68.6043C41.5863 67.468 39.5199 68.539 38.9569 70.1642C38.0138 72.8884 37.8816 118.869 38.8012 124.15C39.1719 126.278 40.6746 132.26 42.1406 137.435C44.3098 145.104 44.6451 147.004 43.9418 147.671C43.3488 148.231 42.6522 148.285 41.7238 147.851V147.851ZM84.0181 23.6111C84.2117 23.4164 83.437 23.257 82.3016 23.257C81.1596 23.257 80.0509 23.5358 79.8372 23.8766C79.4498 24.5108 83.3702 24.2613 84.0181 23.6111V23.6111ZM76.8251 133.313C76.2841 132.973 76.017 132.52 76.2307 132.313C76.7516 131.786 78.8087 132.62 78.8087 133.36C78.8087 134.12 78.074 134.107 76.8251 133.313ZM90.1625 133.233C90.1625 132.48 92.9408 130.619 94.0628 130.619C94.8509 130.619 94.8375 130.866 94.0027 132.12C93.061 133.547 90.1625 134.387 90.1625 133.233ZM100.848 108.905C100.848 108.379 100.408 107.945 99.8666 107.945C99.2722 107.945 99.0384 107.558 99.2722 106.945C99.5594 106.191 99.152 105.944 97.5825 105.944C95.2917 105.944 95.1848 105.791 96.2 103.89C96.7076 102.943 96.6875 102.643 96.1199 102.77C94.4101 103.157 94.9043 101.303 97.1484 98.9288C98.4507 97.555 99.5126 96.3413 99.5126 96.2479C99.5126 96.1479 98.0366 95.8678 96.2267 95.6211C92.9208 95.1609 90.0489 93.1736 91.4515 92.3C91.8455 92.0599 92.1661 92.3333 92.1661 92.9069C92.1661 93.4737 92.4666 93.9405 92.8339 93.9405C93.2013 93.9405 93.5018 93.7071 93.5018 93.4204C93.5018 92.6801 97.3153 90.5194 98.3305 90.6861C99.9601 90.9462 107.56 89.7592 107.914 89.1857C108.115 88.8722 109.103 88.6055 110.112 88.6055C111.12 88.6055 112.509 88.1987 113.191 87.6985C113.872 87.1983 114.987 86.9383 115.662 87.1116C116.336 87.285 117.311 87.0783 117.839 86.6382C118.534 86.0646 119.161 86.0446 120.13 86.5581C120.864 86.9516 121.92 87.2717 122.474 87.2717C123.035 87.2717 124.291 88.0186 125.272 88.9322C126.261 89.8392 127.356 90.3994 127.717 90.1793C128.111 89.9392 128.204 90.3127 127.951 91.1196C127.657 92.0199 128.071 93.1069 129.206 94.4607L130.889 96.4613L129.413 96.8415C128.458 97.0949 127.45 96.7814 126.581 95.9678C123.676 93.2536 122.614 93.1603 111.2 94.6741C102.805 95.7811 102.271 96.3947 109.237 96.9215C115.161 97.3616 118.881 98.2819 118.881 99.3023C118.881 99.5957 118.52 99.9558 118.079 100.103C117.532 100.283 117.745 101.023 118.741 102.417C120.404 104.751 119.716 105.978 116.837 105.804C115.942 105.744 111.908 105.758 107.881 105.824C101.042 105.938 100.648 106.018 102.037 106.985C103.881 108.278 103.954 109.632 102.184 109.766C101.423 109.826 100.848 109.452 100.848 108.905V108.905ZM113.458 104.01C113.965 103.69 114.172 103.097 113.919 102.69C113.184 101.496 111.721 101.83 111.341 103.277C110.973 104.691 111.882 105.004 113.458 104.01V104.01ZM103.059 102.657C102.772 101.556 102.485 101.476 101.116 102.096C98.9383 103.09 99.0986 103.944 101.456 103.944C103.046 103.944 103.333 103.71 103.059 102.657ZM115.455 99.2089C114.954 98.8955 113.792 98.642 112.87 98.6487C111.321 98.6687 111.367 98.7554 113.538 99.9158C114.947 100.669 115.976 100.896 116.123 100.476C116.263 100.103 115.962 99.529 115.455 99.2089ZM67.8222 106.758C67.6419 106.578 63.8798 106.485 59.4605 106.545C54.7714 106.611 51.426 106.391 51.426 106.024C51.426 104.951 57.8549 100.616 61.2357 99.4156L64.4495 98.2753L61.8201 98.0619C60.3735 97.9485 57.911 98.1686 56.3482 98.562C54.7847 98.9555 52.6475 99.2756 51.5976 99.2756C50.5484 99.2756 49.4044 99.5557 49.0551 99.8891C48.2616 100.656 42.0758 101.603 42.0758 100.956C42.0758 100.163 44.3366 96.6081 44.8435 96.6081C45.1053 96.6081 45.717 96.2146 46.2026 95.7344C47.8008 94.1406 53.0002 93.1069 59.1065 93.1603C62.4125 93.1869 67.0675 93.2336 69.4585 93.2536C72.17 93.2803 73.459 93.5137 72.8913 93.8738C72.1634 94.334 72.15 94.5074 72.8379 94.7341C74.2872 95.2209 72.8379 96.6081 70.8811 96.6081C69.8726 96.6081 68.5101 97.0015 67.8556 97.475C66.7523 98.2886 66.787 98.3953 68.3966 99.1289C69.3516 99.5623 70.1264 100.276 70.1264 100.723C70.1264 101.163 70.7742 102.21 71.5623 103.05C72.691 104.257 72.8312 104.771 72.2101 105.518C71.3953 106.498 68.4099 107.345 67.8222 106.758V106.758ZM60.2312 104.677C61.2564 103.484 61.2176 103.39 59.5446 103.063C57.6098 102.677 54.4748 104.271 55.1173 105.311C55.7985 106.411 59.0951 106.004 60.2312 104.677V104.677ZM68.6971 104.017C69.3249 103.617 69.3783 103.31 68.8641 102.99C68.0159 102.47 66.787 103.057 66.787 103.984C66.787 104.764 67.5016 104.777 68.6971 104.017V104.017Z" fill="#C4C4C4"/>
</svg>
