<svg width="185" height="278" viewBox="0 0 185 278" fill="none" xmlns="http://www.w3.org/2000/svg">
<rect width="185" height="278" fill="#E5E5E5"/>
<path d="M136.731 277.403C136.604 277.075 136.549 276.269 136.611 275.613C136.813 273.462 137.591 267.305 137.926 265.202C138.335 262.641 138.7 259.665 138.944 256.904C139.047 255.74 139.195 254.586 139.274 254.339C139.555 253.46 138.666 252.214 137.926 252.448C137.823 252.481 137.408 252.37 137.003 252.202C136.308 251.914 136.246 251.925 135.876 252.411L135.485 252.926L135.238 252.014C135.093 251.479 134.774 250.961 134.467 250.761C134.178 250.574 133.886 250.159 133.816 249.84C133.531 248.536 133.45 248.121 133.249 246.952C133.051 245.798 132.416 244.141 131.516 242.427C131.297 242.009 131.017 241.326 130.895 240.908C130.225 238.617 129.251 236.404 128.126 234.618C127.713 233.962 127.155 233.011 126.887 232.504C126.199 231.206 125.756 231.138 124.776 232.182C124.334 232.653 123.612 233.154 123.172 233.296C122.178 233.617 121.969 234.099 122.511 234.827C122.74 235.134 123.342 236.213 123.85 237.225C124.358 238.237 125.011 239.375 125.301 239.755C125.592 240.135 125.83 240.553 125.83 240.684C125.83 240.815 126.091 241.432 126.411 242.054C127.101 243.398 128.195 246.306 128.469 247.524C128.576 248.001 128.77 248.782 128.9 249.259C129.5 251.462 129.596 252.017 129.783 254.357C129.893 255.728 130.085 257.414 130.21 258.102C130.335 258.79 130.497 260.32 130.569 261.503L130.701 263.652L129.927 263.796C129.489 263.878 128.96 263.837 128.708 263.703C128.463 263.573 127.826 263.467 127.292 263.467C126.758 263.467 125.896 263.317 125.375 263.135C124.855 262.953 124.277 262.818 124.091 262.835C123.089 262.927 122.548 262.781 122.319 262.356C122.035 261.829 121.567 259.26 121.237 256.417C121.112 255.343 120.868 254.123 120.694 253.706C120.139 252.377 119.696 251.038 119.29 249.464C118.893 247.925 118.482 246.972 117.304 244.862C116.953 244.232 116.564 243.354 116.44 242.909C116.317 242.465 115.823 241.369 115.343 240.474C114.278 238.488 114.167 238.248 113.704 236.949C113.445 236.22 113.199 235.892 112.864 235.829C110.486 235.38 109.782 235.161 108.972 234.621C107.463 233.615 107.163 234.309 108.524 235.66C108.991 236.124 109.578 237.05 109.865 237.775C110.47 239.305 111.166 240.889 111.431 241.342C112.19 242.639 112.5 243.344 112.501 243.774C112.501 244.047 112.701 244.595 112.945 244.992C113.189 245.389 113.53 246.323 113.704 247.067C113.878 247.812 114.418 249.263 114.904 250.292C115.413 251.37 115.97 253.034 116.22 254.219C116.458 255.35 116.791 256.844 116.962 257.539C117.132 258.234 117.333 259.414 117.409 260.161C117.588 261.914 117.364 262.005 115.414 260.973C114.234 260.348 113.76 260.206 113.155 260.3C112.689 260.372 111.847 260.25 111.005 259.99C110.243 259.755 109.24 259.562 108.775 259.562C107.968 259.562 107.925 259.526 107.801 258.749C107.411 256.306 106.05 251.44 105.302 249.809C104.834 248.791 104.305 247.519 104.125 246.982C103.945 246.445 103.297 245.015 102.686 243.805C102.074 242.594 101.574 241.518 101.574 241.413C101.574 241.154 99.9286 237.976 99.4219 237.256C99.1982 236.939 98.9441 236.386 98.8571 236.028C98.4508 234.356 97.2698 234.157 95.9612 235.54C95.4815 236.047 94.7644 236.708 94.3677 237.008L93.6465 237.554L94.1393 238.526C94.4103 239.061 94.76 239.645 94.9164 239.824C95.0728 240.003 95.5035 240.907 95.8735 241.834C96.5221 243.458 98.1885 246.538 98.9974 247.608C99.2126 247.892 99.3889 248.282 99.3891 248.475C99.3893 248.668 99.6743 249.362 100.022 250.018C100.37 250.674 100.773 251.651 100.917 252.187C101.062 252.724 101.462 253.749 101.808 254.465C102.153 255.181 102.463 256.108 102.496 256.526L102.557 257.285L101.574 257.242C101.033 257.219 100.05 257.122 99.3887 257.026C98.3592 256.876 98.1765 256.779 98.1148 256.346C98.0654 256 97.9394 255.881 97.7145 255.967C97.5339 256.036 97.3451 256.092 97.2948 256.092C97.2446 256.092 97.2034 256.287 97.2034 256.525C97.2034 256.936 96.9252 257.059 96.1109 257.007C95.9306 256.996 95.3709 257.076 94.8672 257.187C94.3634 257.298 93.8089 257.335 93.635 257.269C93.3402 257.156 92.6145 255.605 92.6145 255.087C92.6145 254.959 92.1066 253.938 91.4858 252.816C90.8649 251.695 89.9303 249.935 89.409 248.906C88.8877 247.876 88.3139 246.912 88.1341 246.764C87.9543 246.616 87.8044 246.385 87.801 246.25C87.798 246.116 87.5027 245.622 87.1455 245.154C86.7883 244.685 86.496 244.194 86.496 244.062C86.496 243.931 86.0541 243.143 85.5141 242.312C84.9741 241.48 84.5315 240.716 84.5307 240.614C84.53 240.512 84.273 240.126 83.9598 239.757C83.6466 239.387 83.1181 238.544 82.7853 237.882C81.6479 235.62 80.8275 234.293 80.0589 233.47C79.6362 233.018 79.1754 232.432 79.0348 232.169C78.8942 231.905 78.0571 230.757 77.1745 229.617C76.292 228.477 75.5698 227.44 75.5698 227.312C75.5698 227.184 75.4095 226.947 75.2134 226.786C75.0174 226.624 74.4248 225.841 73.8964 225.045C73.3682 224.249 72.7877 223.541 72.6066 223.472C72.2781 223.347 70.9814 220.866 70.981 220.362C70.9809 220.216 70.6777 219.941 70.3073 219.751C69.9369 219.561 69.2239 218.983 68.723 218.466C67.8888 217.607 66.7297 217.056 65.7363 217.048C65.556 217.048 64.9335 216.642 64.3529 216.148C63.0064 215.002 62.2282 213.365 62.0158 211.23C61.9289 210.356 61.7717 209.567 61.6664 209.476C61.2202 209.092 59.3969 208.622 57.9353 208.515C56.53 208.412 55.5651 208.133 55.2473 207.738C55.1871 207.663 54.7309 207.287 54.2333 206.903C53.1269 206.049 52.6622 204.97 52.4802 202.833C52.3042 200.766 51.7725 199.803 50.9204 200.009C48.4721 200.601 46.1756 200.216 44.1487 198.874C42.0458 197.482 39.1725 196.411 35.7987 195.762C31.6885 194.971 29.5527 194.724 26.6971 194.709C23.2807 194.691 21.6842 194.916 19.6628 195.7C18.4246 196.18 17.9216 196.525 17.1287 197.436C16.5847 198.062 15.9465 198.899 15.7105 199.297C15.3175 199.961 13.728 204.433 13.728 204.876C13.728 204.98 13.5624 205.444 13.3601 205.906C13.1577 206.368 12.9635 207.292 12.9285 207.959C12.8935 208.627 12.7845 209.388 12.6862 209.652C12.2934 210.706 13.5038 215.556 14.7218 217.808C16.6528 221.378 17.8698 223.789 18.1719 224.643C18.3614 225.178 18.8267 226.446 19.2057 227.46C19.5848 228.474 20.1768 230.133 20.5212 231.147C20.8656 232.161 21.4512 233.821 21.8225 234.835C22.1939 235.849 22.6459 237.087 22.827 237.587C23.0081 238.087 23.296 238.61 23.4666 238.751C23.6373 238.891 23.8821 239.394 24.0107 239.868C24.1393 240.342 24.9266 242.105 25.7604 243.786C26.5942 245.467 27.278 247.093 27.28 247.4C27.2837 248.025 27.5834 248.548 29.8291 251.852C30.6922 253.122 31.4572 254.427 31.529 254.752C31.6008 255.076 32.0471 255.828 32.5208 256.422C32.9944 257.016 33.7537 258.169 34.2079 258.985C35.6799 261.63 37.1283 263.99 37.7819 264.809C38.1333 265.25 38.4209 265.715 38.4209 265.843C38.4209 265.971 38.0914 266.232 37.6888 266.423C37.0566 266.722 36.5682 266.74 34.1093 266.556C30.5043 266.285 29.5023 265.856 27.5372 263.742C26.0966 262.192 25.8324 261.802 24.0158 258.544C23.4042 257.447 22.8189 256.498 22.715 256.434C22.3259 256.195 19.8854 250.94 19.5377 249.592C19.3387 248.82 18.8906 247.747 18.5418 247.206C18.1932 246.665 17.8056 245.954 17.6805 245.625C16.9697 243.758 14.6278 238.997 14.3304 238.815C14.0216 238.625 13.7026 239.206 13.8358 239.715C13.8983 239.954 14.0974 241.272 14.2784 242.643C15.6291 252.884 15.6196 252.84 16.664 253.451C17.1848 253.756 17.6094 254.328 18.1641 255.472C18.5897 256.35 19.1946 257.442 19.5083 257.9C19.8221 258.359 20.3684 259.303 20.7226 259.999C21.0767 260.696 21.4751 261.332 21.608 261.414C22.1245 261.73 23.2924 263.848 23.5541 264.942C23.7054 265.575 23.7936 266.112 23.75 266.135C23.7064 266.158 23.4802 266.282 23.2474 266.409C22.9046 266.597 22.6138 266.508 21.7178 265.942C20.287 265.038 20.1962 264.939 19.1341 263.141C18.641 262.306 18.1078 261.493 17.9494 261.336C17.791 261.178 17.6614 260.879 17.6614 260.672C17.6614 260.238 16.8799 258.553 16.6278 258.443C16.5352 258.402 16.2231 257.783 15.9342 257.067C15.6453 256.352 15.0214 255.099 14.5478 254.283C13.9867 253.317 13.7287 252.641 13.8071 252.344C13.8732 252.093 13.7891 251.589 13.6201 251.224C13.3157 250.566 12.9833 248.618 12.6348 245.447C12.5355 244.544 12.2989 242.739 12.1091 241.435C11.9192 240.131 11.6643 238.137 11.5428 237.004C11.3415 235.127 11.1366 233.567 10.7927 231.294C10.7238 230.838 10.5835 230.301 10.4811 230.101C10.3786 229.901 10.1675 228.831 10.0119 227.723C9.85638 226.616 9.6455 225.658 9.54332 225.596C9.44113 225.533 9.35753 225.296 9.35753 225.068C9.35753 224.841 9.22317 224.237 9.05894 223.726C8.22357 221.125 7.84497 219.359 7.74332 217.59C7.68169 216.517 7.56451 214.997 7.48302 214.212C7.36428 213.07 7.42296 212.531 7.77822 211.501C8.02207 210.794 8.28235 209.796 8.3566 209.284C8.43087 208.772 8.58102 208.186 8.69028 207.983C8.79956 207.779 9.01282 206.978 9.16421 206.203C9.45473 204.715 10.3067 202.897 11.2162 201.824C11.516 201.47 11.7612 201.052 11.7612 200.894C11.7612 200.537 12.4957 199.664 14.6222 197.493C15.5346 196.562 16.7127 195.212 17.24 194.493C17.7674 193.774 18.3975 193.125 18.6402 193.05C18.883 192.974 19.5651 192.511 20.1559 192.02C20.7466 191.529 21.5487 190.933 21.9382 190.694C23.0937 189.986 25.27 188.121 25.4197 187.71C25.5698 187.298 24.7837 186.153 24.2169 185.958C22.2092 185.269 19.9289 184.24 18.8631 183.544C18.142 183.073 17.2824 182.537 16.953 182.353C13.9785 180.69 10.9669 177.593 9.54204 174.733C7.77803 171.192 7.61602 170.772 7.37219 169.11C7.00086 166.579 6.87224 161.758 7.14883 160.738C7.38284 159.876 8.01539 159.038 8.76856 158.592C9.10106 158.395 9.10743 158.245 8.83796 156.965C8.42819 155.018 8.22016 149.934 8.50072 148.723C8.62501 148.186 8.81983 147.173 8.93361 146.472C9.14655 145.16 9.69015 143.373 9.99576 142.98C10.0909 142.858 10.473 142.199 10.845 141.517C11.2169 140.834 12.0178 139.632 12.6246 138.846C13.2314 138.061 13.7359 137.301 13.7457 137.159C13.7555 137.017 13.7826 136.65 13.8059 136.342C13.8323 135.994 14.2849 135.343 15.0029 134.618C15.6379 133.978 16.3098 133.198 16.496 132.885C16.7825 132.404 19.1004 130.846 20.6114 130.119C21.3926 129.743 22.7538 129.587 24.9818 129.618C27.7958 129.657 29.6405 129.997 30.3356 130.605C30.6361 130.868 31.2261 131.242 31.6467 131.436C32.3701 131.771 32.8784 132.322 34.93 134.997C36.3143 136.801 36.0848 137.252 34.1188 136.591C32.6334 136.092 28.7693 135.388 27.8226 135.445C27.462 135.467 26.6753 135.469 26.0744 135.449C23.006 135.349 22.8357 135.379 21.1073 136.326C19.1081 137.422 18.1753 138.245 17.973 139.091C17.8903 139.437 17.4498 140.209 16.9941 140.805C15.5314 142.72 15.6454 143.844 17.1943 142.778C17.6444 142.468 18.259 142.215 18.5601 142.215C18.8612 142.215 19.2984 142.072 19.5317 141.897C20.1652 141.421 20.368 141.476 21.9559 142.555C23.5272 143.623 23.9581 143.667 25.0818 142.873C26.217 142.07 26.8212 142.204 28.2392 143.571C30.5677 145.815 30.972 145.978 33.731 145.777C35.544 145.645 35.8568 145.677 36.5141 146.062C36.9214 146.3 37.6179 146.615 38.0619 146.76C39.8518 147.346 41.5321 149.533 41.7945 151.618C41.9649 152.972 41.9206 153.062 39.7868 155.695C38.7204 157.012 38.9289 158.165 40.4476 159.351L41.0442 159.817L41.6447 159.323C42.7239 158.435 43.9662 156.681 45.1375 154.39C46.3917 151.938 46.5162 151.238 45.8482 150.395C45.249 149.639 44.1025 146.918 44.1025 146.253C44.1025 145.955 44.19 145.658 44.2968 145.592C44.4037 145.526 44.5585 145.203 44.6408 144.874C44.7231 144.545 44.9684 144.08 45.186 143.842C46.4498 142.456 48.4702 134.299 50.6882 121.629C50.8012 120.984 50.9421 120.378 51.0013 120.283C51.0606 120.188 50.952 119.739 50.76 119.287C50.221 118.016 50.0261 116.662 50.2608 115.819C50.3765 115.403 50.4113 114.908 50.3381 114.718C50.2231 114.421 50.1652 114.416 49.911 114.684C49.613 114.998 48.7946 117.052 48.4895 118.252C48.3978 118.613 48.2188 119.101 48.0918 119.337C47.733 120.003 46.0945 125.028 45.7295 126.582C45.5495 127.348 45.0605 128.614 44.6431 129.394C44.2256 130.175 43.884 130.948 43.884 131.113C43.884 131.278 43.7518 131.72 43.5903 132.096C43.4288 132.472 42.771 134.089 42.1284 135.69C41.4859 137.29 40.5607 139.34 40.0725 140.245L39.185 141.89L37.9638 141.954C36.2901 142.041 36.1198 141.801 36.1507 139.39C36.1693 137.938 36.2785 137.306 36.6227 136.659C37.6764 134.676 38.8221 132.254 39.2785 131.044C39.5485 130.329 39.8972 129.499 40.0533 129.201C40.2095 128.902 40.409 128.326 40.4967 127.919C40.719 126.888 42.3242 123.097 42.7289 122.647C42.9126 122.443 43.0108 122.141 42.947 121.976C42.8833 121.811 43.0025 121.295 43.212 120.829C43.4214 120.363 43.666 119.689 43.7555 119.331C43.8449 118.973 44.0481 118.534 44.2071 118.355C44.3661 118.176 44.5946 117.688 44.7148 117.271C44.9748 116.368 46.8848 111.859 47.1449 111.533C47.2447 111.408 47.4763 110.818 47.6595 110.221C48.3136 108.092 49.2182 105.806 50.1489 103.931C50.3266 103.573 50.6214 102.85 50.804 102.324C51.1383 101.361 52.1931 99.0013 53.1879 96.99C53.4829 96.3935 53.7227 95.7986 53.7209 95.6679C53.7186 95.5373 53.9145 95.2534 54.1554 95.037C54.3963 94.8206 54.6963 94.2643 54.822 93.8007C54.9478 93.3372 55.439 92.3615 55.9137 91.6324C56.3884 90.9035 56.7767 90.2098 56.7767 90.0911C56.7767 89.7491 57.8917 87.5335 58.5597 86.548C58.8945 86.0541 59.5312 84.9315 59.9745 84.0536C60.4179 83.1756 60.9481 82.2131 61.153 81.9149C61.3578 81.6167 61.8996 80.787 62.357 80.0712C62.8144 79.3554 63.4762 78.4281 63.8277 78.0106C64.1792 77.593 65.2194 76.1783 66.1394 74.8667C67.0594 73.5552 68.6971 71.5691 69.7788 70.4533C70.8605 69.3374 71.8438 68.2561 71.964 68.0503C72.4415 67.2329 76.3152 64.2034 77.9061 63.4032C79.1958 62.7545 79.3147 62.6218 80.3416 60.6858C81.1825 59.1003 83.2699 57.0236 85.3647 55.6881C85.9266 55.3298 86.7798 54.7494 87.2605 54.3982C88.3873 53.5752 92.1436 51.798 94.4718 50.9864C95.0727 50.777 95.6627 50.5376 95.7829 50.4545C95.9031 50.3713 96.5415 50.1775 97.2017 50.0237C98.6361 49.6896 100.563 48.4376 101.454 47.2604C101.809 46.7918 102.399 46.2134 102.765 45.9751C103.55 45.4649 108.896 43.0916 109.283 43.0816C109.43 43.0779 109.741 42.9314 109.974 42.7562C110.207 42.5811 110.825 42.4378 111.347 42.4378C111.868 42.4378 112.648 42.2914 113.08 42.1124C113.511 41.9335 114.2 41.7871 114.609 41.7871C115.019 41.7871 115.958 41.5853 116.695 41.3388C117.432 41.0922 118.265 40.9477 118.546 41.0176C118.826 41.0875 120.16 41.1981 121.509 41.2633C125.444 41.4534 127.105 41.7735 132.219 43.3269C134.043 43.8809 134.559 44.1498 135.825 45.2063C136.637 45.8844 137.437 46.6229 137.603 46.8474C138.095 47.513 139.207 47.872 140.058 47.6403C140.768 47.4472 144.72 47.6481 145.933 47.939C146.234 48.011 146.775 48.1283 147.135 48.1996C149.346 48.6371 152.453 50.0802 154.209 51.486C156.214 53.0902 159.467 56.1268 159.758 56.6647C159.906 56.9394 160.692 58.1376 161.503 59.3273C162.314 60.517 163.044 61.6691 163.124 61.8875C163.204 62.1059 163.54 62.6307 163.871 63.0538C164.203 63.4769 164.734 64.4684 165.052 65.2572C165.754 66.9983 166.026 67.2569 167.573 67.6552C169.061 68.0386 171.121 69.3186 172.155 70.5029C173.48 72.021 175.214 74.4639 175.215 74.8135C175.215 75.0236 175.608 75.7675 176.089 76.4666C176.57 77.1657 176.963 77.8646 176.963 78.0196C176.963 78.1746 177.254 78.8949 177.61 79.6201C178.208 80.838 178.999 84.4894 179 86.036C179 86.7181 178.737 90.0493 178.614 90.9164C178.197 93.8591 177.954 94.8466 177.316 96.2092C177.182 96.4957 177.101 96.8967 177.136 97.1004C177.17 97.304 176.875 97.8609 176.48 98.3378C176.085 98.8148 175.565 99.4524 175.324 99.7548C174.452 100.853 172.788 102.521 172.566 102.521C172.441 102.521 171.929 102.851 171.428 103.254C170.406 104.076 166.071 106.208 165.421 106.208C164.861 106.208 163.199 108.02 163.187 108.643C163.168 109.694 162.217 111.073 160.574 112.428C157.049 115.338 157.07 115.315 156.76 116.787C156.604 117.53 156.379 118.259 156.259 118.409C156.14 118.558 155.918 119.217 155.765 119.873C155.613 120.529 155.274 121.701 155.011 122.476C154.748 123.252 154.296 124.616 154.006 125.509C153.716 126.401 153.169 127.535 152.79 128.027C152.411 128.52 151.933 129.276 151.727 129.707C151.363 130.468 150.018 132.095 148.649 133.432C147.778 134.282 147.637 134.86 148.143 135.512C148.364 135.799 148.548 136.159 148.551 136.313C148.553 136.467 148.772 136.883 149.036 137.238C149.743 138.188 149.314 138.5 147.062 138.672C146.072 138.748 145.204 138.903 145.133 139.018C144.945 139.32 145.5 139.605 146.282 139.609C147.144 139.613 147.846 140.291 147.383 140.672C147.213 140.812 146.694 140.926 146.23 140.925C145.766 140.925 144.688 140.977 143.833 141.043L142.279 141.163L141.921 140.275C141.724 139.786 141.563 139.308 141.563 139.212C141.563 139.115 142.005 138.471 142.546 137.78C143.42 136.663 143.529 136.399 143.529 135.41C143.527 133.918 142.943 132.995 141.652 132.445C141.102 132.211 140.223 132.02 139.698 132.02H138.743L138.865 133.81C138.976 135.443 138.942 135.664 138.472 136.338C137.727 137.407 136.941 137.909 135.812 138.035C134.875 138.14 134.763 138.093 133.82 137.198C133.155 136.567 132.772 135.996 132.675 135.491C132.544 134.808 132.565 134.761 132.885 135.021C133.312 135.37 133.696 135.183 133.696 134.627C133.696 134.404 134.04 133.776 134.459 133.23C134.879 132.684 135.109 132.237 134.97 132.237C134.237 132.237 132.324 133.029 132.11 133.421C131.978 133.665 131.826 135.182 131.773 136.792C131.695 139.175 131.763 140.16 132.14 142.075C133.305 147.992 132.305 150.184 128.081 150.977C127.023 151.176 125.419 151.373 124.518 151.415C123.617 151.457 122.716 151.558 122.517 151.641C122.318 151.723 121.941 152.247 121.68 152.805C121.42 153.363 121.022 154.161 120.797 154.579C120.264 155.567 120.267 156.957 120.806 158.665C121.739 161.619 121.242 163.315 119.36 163.595C118.583 163.711 118.192 163.931 117.564 164.606C116.443 165.809 115.692 166.144 114.211 166.1C113.095 166.066 112.767 165.936 111.109 164.858C110.089 164.195 109.201 163.515 109.136 163.346C109.07 163.177 108.809 163.038 108.556 163.038C107.41 163.038 104.004 158.233 103.712 156.206C103.667 155.896 103.774 155.772 104.086 155.772C104.37 155.772 104.753 156.133 105.179 156.805C105.539 157.374 106.047 157.894 106.307 157.963C106.567 158.031 107.034 158.371 107.346 158.719C107.849 159.279 108.058 159.351 109.172 159.351C110.574 159.351 111.854 159.897 112.57 160.801C113.101 161.47 113.801 161.747 114.302 161.487C114.917 161.167 114.759 160.751 113.483 159.332C112.822 158.596 112.281 157.907 112.281 157.8C112.281 157.501 110.37 156.367 109.231 155.992C107.985 155.581 104.895 154.031 104.329 153.532C104.102 153.333 103.776 152.839 103.604 152.436C103.192 151.469 103.486 151.174 104.397 151.642C105.759 152.341 108.286 153.063 110.919 153.504C112.393 153.751 113.942 154.095 114.36 154.269C115.087 154.57 115.792 155.454 116.382 156.805C116.629 157.369 116.713 157.399 117.847 157.332C118.508 157.292 119.103 157.207 119.169 157.141C119.234 157.076 119.439 156.4 119.623 155.638C119.808 154.877 120.043 154.058 120.145 153.82C121.042 151.731 121.507 150.882 122.152 150.153C122.832 149.385 123.037 149.29 124.34 149.134C125.131 149.04 126.554 148.713 127.503 148.408C129.04 147.914 129.296 147.753 129.842 146.932C130.4 146.095 130.446 145.882 130.344 144.587C130.282 143.804 130.03 142.593 129.783 141.895C129.399 140.813 129.351 140.292 129.453 138.33C129.78 132.053 131.716 128.101 135.407 126.179C136.153 125.79 138.285 125.697 138.285 126.053C138.285 126.447 138.793 126.598 140.121 126.598C141.5 126.598 143.155 127.111 144.154 127.849C145.015 128.485 145.821 130.058 145.458 130.393C145.301 130.538 145.194 130.538 145.138 130.394C144.319 128.313 142.22 127.631 137.768 127.999C136.149 128.133 135.719 128.257 134.838 128.841C134.066 129.353 133.805 129.663 133.805 130.068C133.805 130.563 133.882 130.607 134.679 130.571C138.136 130.417 139.124 130.486 141.126 131.026C142.268 131.334 143.598 131.586 144.082 131.586C144.995 131.587 146.034 132.116 145.815 132.469C145.745 132.58 145.498 132.671 145.265 132.671C144.758 132.671 144.708 133.159 145.175 133.544C145.641 133.928 146.444 133.534 147.048 132.625C147.309 132.233 147.898 131.619 148.356 131.261C149.458 130.402 151.313 128.15 151.724 127.174C152.138 126.191 152.144 125.209 151.739 124.875C151.343 124.549 149.795 124.5 146.556 124.71L144.01 124.876L143.514 124.078C143.061 123.351 143.045 123.231 143.333 122.721C143.75 121.983 144.976 121.715 147.797 121.745C149.701 121.764 150.153 121.845 151.247 122.359C151.94 122.684 152.63 122.903 152.781 122.845C153.052 122.742 153.21 122.348 154.014 119.765C154.237 119.049 154.682 117.634 155.002 116.62C156.266 112.617 156.689 110.049 156.676 106.446C156.67 104.608 156.552 101.973 156.413 100.59C156.084 97.2926 155.744 96.7259 153.613 95.9176C152.079 95.3359 151.833 95.0952 151.833 94.1767C151.833 93.5259 151.115 92.6393 150.763 92.8553C150.573 92.9718 150.54 93.3735 150.647 94.2455L150.799 95.4719L150.309 95.038C150.04 94.7994 149.642 94.2626 149.425 93.8451C149.207 93.4275 148.618 92.6954 148.116 92.2183C146.614 90.7928 145.609 89.1167 144.762 86.6271C144.324 85.3414 143.966 84.1796 143.966 84.0453C143.966 83.911 143.29 82.4252 142.463 80.7434C140.169 76.0807 139.756 73.0275 140.919 69.3415C141.162 68.5699 141.413 67.5937 141.476 67.1723C141.54 66.751 141.697 66.105 141.826 65.7368C142.131 64.8711 141.857 64.3724 140.767 63.8033C139.874 63.3369 138.95 61.9779 138.944 61.121C138.942 60.8388 139.105 60.148 139.306 59.586C139.507 59.0239 139.603 58.3875 139.52 58.1717C139.383 57.8164 139.332 57.8109 138.99 58.113C138.783 58.2966 137.898 58.811 137.024 59.256C135.649 59.9567 135.305 60.0474 134.456 59.9319C133.917 59.8586 133.087 59.6015 132.611 59.3607C131.988 59.0453 131.32 58.9229 130.222 58.9229H128.697L128.566 58.001C128.494 57.494 128.463 56.6887 128.498 56.2115L128.56 55.3438H127.534C126.259 55.3438 125.945 55.0467 125.991 53.8876C126.035 52.7894 125.764 52.4156 124.921 52.4156C123.992 52.4156 122.845 51.8766 122.536 51.2953C122.188 50.6394 121.917 50.4709 121.203 50.4668C120.364 50.4623 120.158 49.4385 120.784 48.3853C121.644 46.9396 121.309 46.8507 119.535 48.0527C118.85 48.5163 117.768 49.3948 117.13 50.0049C115.878 51.2023 115.739 51.2663 115.367 50.821C115.185 50.6039 115.188 50.3363 115.376 49.7907C115.681 48.9054 117.333 46.7125 118.095 46.1809C119.433 45.2472 120.421 44.195 120.287 43.8476C119.873 42.7772 116.223 45.3911 113.319 48.8367C112.917 49.3139 112.218 50.4852 111.764 51.4396C111.311 52.3939 110.709 53.6147 110.426 54.1524C109.659 55.6105 108.608 60.2033 108.436 62.8482C108.285 65.1892 108.521 67.6435 109.121 69.9392C109.88 72.8463 113.17 77.6224 114.882 78.3024C116.174 78.8154 116.329 79.1436 115.655 79.9385C115.078 80.6193 113.997 80.8726 113.701 80.3966C113.535 80.1297 112.062 80.106 112.062 80.3703C112.062 80.4751 111.776 80.6785 111.427 80.8221C110.874 81.0494 110.672 81.0175 109.876 80.5773C108.995 80.0899 108.952 80.0861 108.709 80.4744C107.785 81.949 107.781 81.951 105.863 81.8052C104.886 81.7309 103.706 81.5102 103.242 81.3146C102.439 80.9766 102.382 80.9793 102.094 81.37C101.928 81.596 101.792 81.9985 101.792 82.2645C101.792 82.6319 101.624 82.7846 101.094 82.9001C100.348 83.0629 100.318 83.0391 98.0535 80.4352C97.62 79.9367 97.1504 79.5289 97.0101 79.5289C96.5367 79.5289 96.2839 80.6417 96.5337 81.6264C96.6613 82.1293 96.7682 83.254 96.7713 84.1258C96.778 86.0639 97.3643 88.7345 98.1775 90.5332C98.5117 91.2724 98.7272 92.027 98.6564 92.2102C98.5013 92.6113 97.7743 92.6498 97.487 92.2722C97.241 91.949 96.0066 89.0207 95.7267 88.0967C95.5979 87.6714 95.3633 87.4217 95.0498 87.376C94.5878 87.3085 94.5747 87.357 94.6976 88.6774C94.8225 90.0187 95.0762 91.1308 95.4557 92.001C96.2607 93.847 96.5472 94.5878 96.5472 94.8231C96.5472 95.657 93.3161 95.1291 91.9771 94.0765C91.4902 93.6937 90.9918 93.442 90.8695 93.517C90.3942 93.8086 90.6586 94.9109 91.451 95.9414C92.8222 97.7245 93.9405 99.5557 93.7647 99.7301C93.6724 99.8218 93.2035 99.8063 92.7229 99.6957C92.2423 99.5851 91.4803 99.4923 91.0296 99.4895C89.8663 99.482 89.8981 100.153 91.0888 100.738C92.0913 101.23 91.8716 101.436 90.344 101.436C89.2608 101.436 88.5287 100.964 87.1546 99.3758C86.1118 98.171 85.8397 97.9861 85.8397 98.482C85.8397 99.4067 86.7916 101.252 87.6409 101.973C88.1579 102.413 88.3989 102.738 88.2074 102.738C87.7722 102.738 87.1509 103.428 87.1509 103.911C87.1509 104.223 87.0296 104.264 86.4744 104.143C85.0004 103.822 82.626 102.56 81.9391 101.733C81.5605 101.277 81.2507 100.831 81.2507 100.742C81.2507 100.653 80.9731 99.9671 80.6337 99.2185C79.753 97.2759 79.5584 96.7137 79.2809 95.3088C79.1243 94.5163 78.9253 94.0615 78.7351 94.0615C78.2181 94.0615 78.2015 94.3722 78.6284 96.0676C79.0955 97.9231 80.1983 100.236 81.2993 101.669C81.705 102.197 82.2254 102.947 82.4558 103.334C82.6862 103.722 83.0009 104.039 83.1553 104.039C83.5694 104.039 83.4963 104.569 83.0234 104.993C82.6334 105.344 82.5714 105.34 81.8878 104.927C81.3467 104.601 81.0916 104.551 80.8744 104.73C80.6358 104.927 80.6494 105.041 80.9513 105.372C81.1532 105.593 81.4452 105.775 81.6 105.775C81.9323 105.775 82.5618 106.606 82.5618 107.045C82.5618 107.281 82.3476 107.323 81.6331 107.226C80.9154 107.128 80.5803 107.194 80.1581 107.517C79.0329 108.376 77.9234 107.978 76.0234 106.035C75.5335 105.534 75.0276 105.124 74.8991 105.124C74.7601 105.124 74.6937 105.483 74.735 106.012L74.8043 106.9L73.5435 107.291C72.1104 107.736 71.6876 107.992 70.3679 109.213C69.7083 109.823 69.3896 110.317 69.2995 110.868C69.1814 111.591 69.2524 111.728 70.1947 112.599C71.3345 113.653 71.6953 114.547 71.4911 115.814C71.3702 116.564 71.4021 116.655 71.7635 116.585C72.0592 116.529 72.2442 116.187 72.4307 115.354C72.7177 114.071 72.8122 113.909 73.1508 114.116C73.4511 114.301 73.4566 117.381 73.1575 117.935C72.807 118.586 71.8357 118.469 71.0215 117.679C70.3808 117.057 70.3244 116.889 70.3244 115.608C70.3244 114.295 70.2873 114.192 69.6861 113.85C69.335 113.65 68.7951 113.1 68.4863 112.627C68.0039 111.888 67.9412 111.601 68.0406 110.584C68.1766 109.195 68.3438 108.84 69.5289 107.424C70.3919 106.394 72.5392 105.124 73.4205 105.124C74.4738 105.123 74.6118 104.64 73.8236 103.714C73.6206 103.475 73.3323 102.972 73.183 102.597C72.7958 101.621 72.0555 100.991 71.4749 101.142C70.9876 101.268 69.0291 103.637 67.7595 105.635C66.4893 107.635 66.1587 107.011 67.2798 104.73C68.0531 103.156 69.2439 101.416 70.5018 100.021C71.3391 99.0926 71.3702 99.0079 71.1563 98.2349C71.0329 97.7887 70.7952 97.16 70.6282 96.8379C70.4612 96.5157 70.3245 96.0521 70.3245 95.8075C70.3245 95.2053 69.6473 95.2291 69.0868 95.851C68.845 96.1194 68.4258 96.7061 68.1553 97.1549C67.8848 97.6037 67.321 98.3778 66.9024 98.8751C66.4838 99.3725 65.9489 100.128 65.7138 100.554C65.4787 100.979 65.0955 101.621 64.8623 101.979C64.2267 102.954 63.7689 104.035 63.7689 104.56C63.7689 104.817 63.6266 105.229 63.4525 105.476C62.8346 106.351 62.4856 109.601 62.696 112.521C62.8025 114 62.948 115.405 63.0193 115.644C63.0905 115.882 63.2294 116.956 63.3278 118.03C63.5994 120.992 64.4482 123.314 65.7926 124.774C67.5493 126.682 68.8814 127.153 70.3606 126.387C71.8435 125.62 71.9291 125.769 71.7672 128.824C71.6898 130.284 71.5686 133.97 71.4978 137.016C71.3485 143.435 71.4662 144.311 73.0867 148.852C73.6358 150.391 74.1821 151.992 74.3006 152.409C74.5603 153.325 76.1157 156.429 77.5075 158.808C78.0657 159.763 78.6691 160.802 78.8486 161.118C79.4667 162.208 81.1112 164.451 82.2435 165.749C82.8678 166.465 83.53 167.343 83.7151 167.701C83.9001 168.059 84.5876 168.81 85.243 169.369C86.5151 170.454 87.366 172.171 86.905 172.723C86.5702 173.123 85.3549 172.62 84.1395 171.579C83.0612 170.654 81.1945 167.627 80.9343 166.381C80.8573 166.012 80.4645 165.364 80.0613 164.939C78.9064 163.724 77.2869 161.219 75.6768 158.157C74.8612 156.606 74.0685 155.191 73.9154 155.012C73.7622 154.833 73.4273 154.158 73.1712 153.511C72.9151 152.865 72.523 151.938 72.2999 151.451C70.5347 147.598 69.6615 142.829 69.6436 136.943C69.6368 134.653 69.7004 132.081 69.7853 131.228C69.9669 129.403 69.8413 129.056 69.1689 129.523C68.5596 129.947 67.8366 129.938 66.6592 129.491C65.2347 128.951 65.1322 129.15 64.9646 132.779C64.8137 136.047 63.9852 142.803 63.4261 145.327C62.5768 149.158 61.721 152.435 61.2929 153.494C61.1241 153.911 60.8178 154.839 60.6121 155.555C60.4065 156.27 60.0554 157.246 59.832 157.724C59.6086 158.201 59.0364 159.421 58.5605 160.435C58.0845 161.449 57.6245 162.523 57.5383 162.821C57.452 163.119 57.2036 163.558 56.9862 163.797C56.7689 164.036 56.1762 165.012 55.6691 165.966C54.1083 168.904 52.0308 171.602 49.7289 173.682C49.1921 174.167 48.9094 174.613 48.9094 174.974C48.9094 175.538 49.4368 175.921 52.9372 177.896C53.5714 178.254 54.6209 178.945 55.2694 179.433C55.9178 179.921 56.6943 180.447 56.9947 180.603C57.2952 180.76 57.9835 181.242 58.5244 181.676C59.0652 182.109 59.9247 182.754 60.4343 183.108C62.4683 184.522 62.8139 184.786 63.6573 185.566C64.1393 186.012 65.5171 187.148 66.7189 188.09C70.3887 190.966 74.2596 194.574 78.0277 198.631C78.9591 199.634 80.6614 201.431 81.8106 202.624C85.9382 206.909 86.4117 207.425 88.1722 209.565C89.154 210.758 90.4429 212.1 91.0364 212.547C91.9769 213.256 92.2666 213.36 93.2935 213.357C95.8798 213.348 100.616 212.641 104.086 211.746C109.862 210.255 111.287 209.737 111.508 209.048C111.651 208.599 111.276 207.28 110.663 206.081C110.476 205.716 110.297 205.179 110.264 204.888C110.161 203.973 110.817 204.283 111.436 205.443C111.754 206.04 112.271 207.008 112.584 207.595C113.195 208.737 113.327 209.92 112.882 210.267C112.462 210.594 109.221 211.846 108.238 212.061C107.757 212.167 106.655 212.399 105.789 212.577C104.923 212.755 104.01 213.01 103.761 213.142C103.512 213.275 102.598 213.474 101.73 213.585C100.863 213.697 99.6612 213.881 99.0602 213.995C94.0798 214.939 92.9989 214.988 91.1493 214.358C90.1357 214.013 87.5874 211.662 86.3746 209.953C85.1088 208.17 83.5043 206.28 81.1543 203.805C78.6214 201.136 75.9079 198.151 75.8282 197.946C75.7376 197.712 67.7819 190.513 66.3272 189.348C65.7011 188.847 64.7954 188.106 64.3147 187.702C63.5249 187.038 62.4538 186.242 58.7424 183.56C58.0814 183.082 57.4422 182.586 57.322 182.457C57.2018 182.329 56.2185 181.659 55.1368 180.969C54.0551 180.279 52.6899 179.403 52.1029 179.022C51.5159 178.641 50.747 178.168 50.3943 177.97C50.0415 177.773 49.5876 177.476 49.3856 177.311C48.8504 176.874 47.4316 176.269 46.9426 176.269C46.4046 176.269 46.0683 176.893 46.0683 177.892C46.0683 178.435 45.9104 178.821 45.5525 179.153C45.2689 179.416 44.4796 180.164 43.7986 180.814C43.1177 181.465 42.121 182.245 41.5838 182.549C38.2751 184.421 36.6092 185.51 36.4664 185.893C36.276 186.404 36.8961 188.248 37.4827 188.917C39.2623 190.944 39.949 191.37 41.6958 191.531C44.1766 191.76 45.0561 192.053 45.9303 192.942L46.7169 193.741L46.5044 195.037C46.2603 196.526 46.3203 196.798 47.1673 198.044C48.0739 199.378 48.6029 199.599 49.8677 199.172C50.4305 198.983 51.3778 198.828 51.9728 198.828C52.9821 198.828 53.0913 198.882 53.6003 199.646C54.1872 200.526 54.5905 202.201 54.5905 203.759C54.5905 205.057 55.1571 206.165 56.105 206.721C56.7338 207.09 57.2449 207.178 58.7424 207.178C60.2157 207.178 60.8572 207.287 61.8444 207.702C63.2605 208.297 63.5394 208.738 63.6536 210.568C63.8231 213.285 64.7539 215.387 66.1071 216.11C66.7755 216.468 66.8689 216.468 67.8584 216.118C68.4333 215.913 69.4006 215.746 70.008 215.747C70.9735 215.747 71.2018 215.84 71.8231 216.476C72.4223 217.09 72.5837 217.489 72.853 219.025C73.2741 221.426 73.2757 221.43 74.2768 222.687C75.0234 223.625 75.2477 223.774 75.9156 223.774C76.3413 223.774 77.1647 223.571 77.7455 223.323C78.7108 222.911 78.8551 222.9 79.4249 223.196C81.112 224.073 81.7821 225.28 81.5994 227.113C81.5269 227.841 81.5564 228.806 81.6652 229.257C82.022 230.738 85.1636 234.836 85.9417 234.836C86.0699 234.836 86.5488 235.088 87.0059 235.396C87.6676 235.843 88.2428 235.995 89.8271 236.142C92.2171 236.365 92.6588 236.223 94.3615 234.686C95.7191 233.46 96.3125 233.101 96.9802 233.101C97.6631 233.101 98.7515 233.711 99.5058 234.516C100.081 235.131 100.363 235.246 101.612 235.379C103.966 235.629 104.528 235.388 105.416 233.751C106.502 231.749 107.22 231.574 108.976 232.884C109.934 233.598 110.314 233.751 111.128 233.751C112.218 233.751 113.961 232.902 114.894 231.917C115.64 231.129 117.171 230.281 117.848 230.281C118.64 230.281 119.691 230.849 120.504 231.718C121.029 232.279 121.367 232.45 121.95 232.45C122.901 232.45 123.782 231.785 123.973 230.923C124.343 229.249 126.387 226.81 127.419 226.81C127.693 226.81 128.141 226.967 128.416 227.158C128.69 227.348 129.501 227.557 130.216 227.622C131.273 227.717 131.599 227.665 131.951 227.349C132.189 227.135 132.384 226.868 132.384 226.755C132.384 226.321 133.155 224.921 133.949 223.914C134.881 222.731 134.851 222.481 133.677 221.595C132.577 220.767 130.715 219.233 129.13 217.85C128.336 217.156 126.913 216.034 125.969 215.355C125.024 214.677 123.207 213.355 121.931 212.419C120.654 211.483 119.263 210.53 118.84 210.301C118.417 210.071 117.629 209.551 117.088 209.143C116.547 208.735 116.024 208.396 115.926 208.388C115.637 208.365 114.165 207.218 113.819 206.747C113.643 206.508 113.048 205.825 112.495 205.228C111.942 204.632 111.155 203.607 110.746 202.951C110.338 202.294 109.631 201.318 109.176 200.782C108.721 200.245 107.547 198.829 106.568 197.636C103.701 194.144 101.984 192.322 101.561 192.322C101.134 192.322 100.761 193.345 100.172 196.136C99.9224 197.317 99.9079 197.854 100.103 198.692C100.334 199.687 100.318 199.778 99.8458 200.157C99.3525 200.554 99.329 200.553 98.7043 200.111C97.6968 199.399 97.2019 198.209 97.205 196.506C97.208 195.054 97.858 192.247 98.5949 190.506C98.7905 190.044 98.9502 189.556 98.9498 189.422C98.9494 189.287 98.089 188.446 97.0378 187.552C95.0285 185.843 93.0541 183.875 93.0517 183.58C93.0502 183.395 91.6105 181.228 90.6454 179.959C90.3279 179.541 89.6581 178.654 89.1569 177.988C88.6557 177.322 87.8025 176.311 87.2609 175.742C86.2866 174.718 86.0204 174.104 86.5494 174.1C87.1508 174.097 91.0421 178.43 92.7068 180.958C94.4558 183.614 95.3026 184.551 97.2671 186.009C99.1583 187.413 107.574 195.908 108.563 197.413C108.796 197.767 109.175 198.206 109.405 198.389C109.894 198.777 112.184 201.442 112.901 202.458C113.284 203 113.363 203.325 113.253 203.908C113.034 205.069 114.013 206.107 116.671 207.532C117.868 208.174 119.215 208.895 119.662 209.135C120.805 209.747 122.685 210.886 123.972 211.745C126.868 213.679 128.408 214.717 129.107 215.207C129.527 215.502 130.278 216.018 130.775 216.354C131.272 216.69 132.452 217.658 133.397 218.506C135.853 220.709 138.196 222.629 139.182 223.246C140.38 223.997 141.516 225.618 141.679 226.811C141.753 227.348 141.905 228.031 142.017 228.329C142.552 229.744 142.611 237.75 142.108 240.75C141.919 241.879 142.135 242.428 142.767 242.428C143.116 242.428 143.38 242.235 143.572 241.84C143.832 241.305 144.081 241.208 146.37 240.75C147.752 240.474 149.709 240.157 150.72 240.046C151.73 239.936 152.659 239.743 152.785 239.618C153.147 239.259 153.84 239.353 154.353 239.831C154.912 240.353 155.322 240.384 158.565 240.154C160.383 240.025 161.352 240.054 162.232 240.264C164.113 240.712 164.068 240.912 163.559 234.403C162.798 224.667 162.721 223.252 162.852 221.327C163.293 214.86 163.292 214.846 162.524 212.331C161.093 207.647 159.575 205.148 155.806 201.264C155.287 200.73 154.625 199.939 154.336 199.507C153.338 198.02 151.72 196.061 149.694 193.889C146.694 190.671 145.67 189.266 144.126 186.249C143.851 185.712 143.347 184.805 143.006 184.234C142.545 183.462 142.358 182.82 142.279 181.739C142.221 180.939 142.036 179.866 141.868 179.354C141.203 177.329 141.771 176.575 142.463 178.564C142.882 179.766 143.277 179.917 143.702 179.037C144.401 177.589 144.642 178.843 144.033 180.76C143.711 181.776 143.699 182.098 143.941 183.274C144.346 185.24 145.306 186.94 147.005 188.705C147.83 189.561 148.921 190.75 149.43 191.346C151.137 193.347 152.229 194.336 152.582 194.202C152.911 194.077 152.897 193.864 152.492 192.864C152.396 192.626 152.121 191.845 151.881 191.129C150.819 187.953 150.238 186.311 149.962 185.707C149.799 185.349 149.597 184.665 149.514 184.188C149.43 183.711 149.123 182.962 148.831 182.524C148.315 181.748 148.311 181.706 148.667 180.961C149.277 179.685 149.413 179.66 151.23 180.482C153.584 181.547 156.534 183.855 156.872 184.897C157.016 185.342 157.228 185.823 157.341 185.965C157.605 186.296 158.137 188.124 158.496 189.936C158.65 190.712 159.028 192.273 159.336 193.407C159.644 194.54 160.051 196.053 160.241 196.769C160.431 197.484 160.724 198.509 160.893 199.046C161.062 199.583 161.263 200.461 161.34 200.998C161.418 201.535 161.691 202.755 161.948 203.71C162.205 204.664 162.393 205.522 162.366 205.617C162.227 206.098 162.79 208.452 163.154 208.911C163.383 209.2 163.702 209.906 163.861 210.478C164.021 211.05 164.263 211.616 164.4 211.735C164.839 212.12 165.749 216.852 165.47 217.3C165.391 217.426 165.246 218.422 165.147 219.513C165.048 220.604 164.865 221.969 164.74 222.546C164.568 223.341 164.593 224.127 164.842 225.774C165.024 226.971 165.22 228.027 165.278 228.121C165.336 228.215 165.437 229.126 165.502 230.146C165.567 231.166 165.769 232.663 165.952 233.472C166.134 234.282 166.375 235.774 166.487 236.788C166.599 237.802 166.846 239.901 167.036 241.451C167.226 243.002 167.459 245.003 167.553 245.898C167.648 246.793 167.842 247.813 167.985 248.166C168.219 248.741 168.471 250.902 168.785 255.008C168.844 255.784 168.987 257.071 169.104 257.869C169.22 258.668 169.315 259.701 169.315 260.166C169.315 260.632 169.512 261.775 169.752 262.708C170.289 264.792 170.32 265.974 169.843 266.156C169.259 266.378 168.252 266.302 168.009 266.016C166.84 264.639 166.63 264.024 166.435 261.407C166.328 259.975 166.051 257.438 165.819 255.767C165.588 254.097 165.29 251.803 165.158 250.67C164.562 245.563 164.44 244.901 163.906 243.883C163.191 242.523 162.428 242.206 159.826 242.188C158.082 242.176 156.341 242.463 155.055 242.974C154.843 243.057 154.613 243.384 154.543 243.699C154.274 244.902 154.191 245.033 153.621 245.156C153.299 245.226 152.593 245.417 152.052 245.58C150.468 246.057 148.529 246.5 147.354 246.654C146.753 246.733 146.054 246.846 145.801 246.905C145.3 247.023 144.622 246.497 144.622 245.991C144.622 245.778 144.877 245.681 145.441 245.68C146.724 245.68 151.894 244.629 152.221 244.304C152.611 243.917 153.033 240.928 152.738 240.636C152.489 240.389 146.721 241.407 145.544 241.906C144.761 242.238 144.784 242.196 144.409 244.011L144.149 245.269L143.219 245.13C142.368 245.004 142.242 245.049 141.716 245.669C141.179 246.302 141.142 246.487 141.141 248.562C141.14 249.781 141.092 251.413 141.034 252.188C140.696 256.695 140.439 259.352 140.257 260.214C140.145 260.751 140.046 261.922 140.039 262.817C140.032 263.711 139.877 265.072 139.695 265.839C139.513 266.607 139.218 268.51 139.04 270.069C138.343 276.158 137.939 278 137.302 278C137.115 278 136.858 277.732 136.731 277.404L136.731 277.403ZM140.351 241.287C140.398 241.138 140.483 239.331 140.539 237.271C140.639 233.597 140.631 233.512 140.124 232.824C139.488 231.962 139.191 231.359 138.178 228.869C137.742 227.796 137.206 226.722 136.989 226.483C136.772 226.245 136.457 225.757 136.291 225.399C136.08 224.946 135.805 224.727 135.388 224.68C134.641 224.594 134.352 225.224 134.352 226.941C134.352 227.886 134.508 228.416 135.117 229.535C135.537 230.308 135.882 231.119 135.882 231.336C135.882 231.553 136.069 231.899 136.299 232.105C136.78 232.537 137.057 233.164 137.504 234.834C137.679 235.49 138.072 236.613 138.377 237.329C138.681 238.045 138.935 238.874 138.941 239.172C138.946 239.471 139.14 240.13 139.372 240.637C139.789 241.549 140.186 241.812 140.351 241.287H140.351ZM34.4509 186.98C34.497 186.744 34.3764 186.618 34.1049 186.618C33.5312 186.618 33.3531 186.847 33.6501 187.202C33.9591 187.572 34.3569 187.461 34.4509 186.98H34.4509ZM20.1459 180.161C20.2032 180.069 19.8684 179.43 19.4019 178.741C18.9353 178.052 18.3789 176.938 18.1652 176.265C17.8809 175.37 17.4443 174.689 16.5358 173.726C15.8532 173.003 15.0634 172.144 14.7807 171.817C14.1732 171.115 12.7568 168.438 12.3408 167.205C12.0174 166.248 11.1539 165.761 11.4391 166.697C11.7403 167.686 12.9029 170.277 14.2945 173.062C15.0697 174.613 15.7023 176.084 15.7004 176.332C15.6952 177.015 16.9353 178.729 17.8394 179.289C19.5564 180.353 19.9367 180.497 20.1459 180.161L20.1459 180.161ZM32.8346 173.333C32.8904 173.064 33 172.359 33.078 171.766C33.1698 171.069 33.3668 170.586 33.6362 170.398C34.314 169.927 34.2002 168.364 33.4046 167.216C32.6229 166.088 32.2529 165.917 31.6485 166.403C31.1338 166.817 30.6871 168.433 30.9019 169.105C30.9793 169.347 30.9213 169.91 30.7731 170.355C30.5461 171.038 30.5621 171.34 30.8748 172.275C31.079 172.885 31.4104 173.48 31.6113 173.596C32.2332 173.956 32.727 173.85 32.8346 173.333L32.8346 173.333ZM24.8354 170.601C24.9239 169.685 24.3541 169.003 23.5749 169.093C22.8501 169.177 22.7634 169.804 23.3468 170.744C23.9548 171.724 24.7342 171.649 24.8354 170.601V170.601ZM25.4352 164.233C25.5193 163.969 26.1625 162.916 26.8645 161.892C27.8509 160.452 28.4401 159.837 29.4578 159.183C30.9849 158.202 31.0724 157.872 30.2213 156.298C29.44 154.854 28.288 153.064 27.7774 152.501C27.5388 152.237 27.2828 151.851 27.2086 151.642C26.888 150.74 26.0173 151.485 24.7629 153.733C24.0039 155.093 23.7831 155.873 24.0321 156.315C24.165 156.551 24.0727 157.153 23.7534 158.134C23.3134 159.486 23.2969 159.729 23.5427 161.234C23.9042 163.447 24.3936 164.711 24.8897 164.711C25.1056 164.711 25.3511 164.496 25.4352 164.233V164.233ZM136.609 136.073C136.996 135.771 137.217 135.337 137.315 134.684C137.49 133.53 137.312 132.902 136.721 132.588C136.037 132.225 135.796 132.654 136.316 133.31C136.869 134.008 136.868 134.148 136.307 134.857C135.939 135.32 135.671 135.428 134.886 135.428C134.163 135.428 133.919 135.512 133.919 135.761C133.919 136.521 135.761 136.735 136.609 136.073L136.609 136.073ZM78.5185 91.7266C78.4489 91.2468 78.3771 89.146 78.359 87.0583C78.331 83.8359 78.3975 82.9675 78.7991 81.3103C79.0593 80.2366 79.5321 78.2371 79.8498 76.8671C80.1674 75.497 80.6144 73.9841 80.8431 73.505C81.2802 72.5893 83.0269 70.5733 83.3832 70.5733C83.4977 70.5733 83.7695 70.7685 83.987 71.0071C84.5612 71.6369 84.8029 71.5552 85.6379 70.449C86.0941 69.8445 86.6126 69.4122 86.9651 69.3422C87.2832 69.279 87.7565 68.9414 88.0167 68.592C88.277 68.2426 88.6076 67.979 88.7515 68.0062C88.8953 68.0334 89.4641 67.9841 90.0155 67.8966C90.5707 67.8085 91.2657 67.831 91.5733 67.9471C91.9921 68.1051 92.2558 68.0702 92.6467 67.805C93.3592 67.3215 93.4457 67.1625 93.7294 65.815C94.1168 63.9752 95.4273 60.9129 96.272 59.874C96.8097 59.2128 96.9247 58.5137 96.518 58.3791C96.2182 58.2799 93.3712 59.0864 92.6876 59.4642C92.4251 59.6093 92.0642 59.728 91.8856 59.728C91.0978 59.728 87.1908 62.3989 85.4074 64.1567C82.2408 67.2779 81.5266 68.1599 79.234 71.7813C77.2836 74.8621 76.0067 78.1597 75.5702 81.2425C75.4467 82.1148 75.2921 82.9992 75.2266 83.208C75.1611 83.4167 75.196 83.5876 75.3041 83.5876C75.4123 83.5876 75.6828 82.8311 75.9053 81.9065C76.1278 80.9819 76.4299 80.0919 76.5765 79.9287C77.166 79.2725 77.3333 79.9186 77.3175 82.7903C77.2997 86.0413 77.4859 89.3976 77.7036 89.7471C77.7845 89.8769 77.8235 90.6416 77.7904 91.4463C77.7211 93.1322 77.8939 93.6184 78.3447 93.0063C78.5426 92.7378 78.6019 92.3008 78.5185 91.7262L78.5185 91.7266ZM90.6523 92.246C90.6523 91.7174 90.1417 91.7921 90.0353 92.3363C89.9935 92.5503 90.105 92.6979 90.3085 92.6979C90.5112 92.6979 90.6523 92.5124 90.6523 92.246V92.246ZM100.751 78.0103C99.834 76.0275 99.6231 74.9822 99.6169 72.3896C99.6126 70.6497 99.6831 70.1338 99.9559 69.9091C100.348 69.5865 100.553 69.7798 100.961 70.8564C101.129 71.2991 101.318 71.4467 101.653 71.3987C102.006 71.3481 102.15 71.1219 102.268 70.4312C102.353 69.9353 102.628 69.1301 102.879 68.6417C103.28 67.8609 103.427 67.7537 104.091 67.7537C105.296 67.7537 105.565 67.1201 105.875 63.5416C106.026 61.8038 106.325 59.9177 106.571 59.1656C106.807 58.4385 107.071 57.2928 107.155 56.6195C107.341 55.1441 107.077 54.9388 105.667 55.462C105.161 55.6499 103.911 55.9455 102.889 56.119C101.098 56.4231 99.361 56.9676 98.7921 57.4032C98.6419 57.5182 98.5189 57.7859 98.5189 57.998C98.5189 58.2101 98.1226 59.2393 97.6382 60.285C96.1712 63.4516 95.8765 64.5641 95.741 67.4457C95.6322 69.7604 95.6733 70.2314 96.0934 71.4845C97.224 74.8569 100.616 80.2917 101.218 79.6941C101.357 79.5559 101.194 78.969 100.751 78.0101L100.751 78.0103ZM159.225 77.5494C160.945 77.3803 161.14 77.0661 160.295 75.8182C159.999 75.3792 159.588 74.5681 159.383 74.0157C158.862 72.6124 158.347 72.4226 156.6 72.9885C155.012 73.5027 154.577 73.8347 153.985 74.9869C153.324 76.2727 153.895 76.976 154.797 75.9867C155.429 75.2928 156.05 75.5198 156.258 76.5215C156.484 77.6025 156.811 77.9944 157.347 77.8255C157.579 77.7525 158.424 77.6283 159.225 77.5494L159.225 77.5494ZM171.942 74.371C171.942 74.0345 171.681 73.6047 171.25 73.2323C170.869 72.9033 170.353 72.3953 170.102 72.1036C169.147 70.9894 168.673 70.5735 168.359 70.5735C167.79 70.5735 167.724 71.0293 168.201 71.6698C168.456 72.0116 168.668 72.3683 168.673 72.4626C168.688 72.7548 169.917 74.0842 170.563 74.5069C171.44 75.0812 171.942 75.0318 171.942 74.371L171.942 74.371ZM143.225 70.5031C143.36 69.7673 143.331 69.6775 142.976 69.7453C142.555 69.8258 142.148 71.0684 142.354 71.6475C142.533 72.1531 143.045 71.4807 143.225 70.5031H143.225ZM90.3299 269.647C89.8492 269.53 89.1117 269.303 88.6911 269.143C88.2704 268.983 87.3635 268.735 86.6757 268.591C85.5353 268.353 85.3407 268.223 84.4664 267.116C83.9391 266.448 83.4382 265.682 83.3531 265.414C83.2681 265.146 83.1196 264.926 83.023 264.926C82.9265 264.926 82.3399 264.169 81.7195 263.245C81.0991 262.32 80.2519 261.125 79.8368 260.588C78.1214 258.369 76.7937 256.361 75.8927 254.623C75.5836 254.026 74.8931 252.953 74.3584 252.237C73.8237 251.521 73.1904 250.594 72.951 250.176C72.7117 249.759 72.4246 249.271 72.3131 249.092C71.8581 248.361 69.5728 244.345 67.3153 240.307C67.1152 239.949 66.445 238.875 65.8261 237.921C65.2071 236.966 64.391 235.6 64.0126 234.884C63.6341 234.168 62.7878 232.753 62.1318 231.739C59.8093 228.149 57.2239 222.532 57.2239 221.078C57.2239 220.386 57.8071 220.036 58.5885 220.258C59.4588 220.506 59.4091 220.508 59.4091 220.227C59.4091 219.947 57.2895 217.546 55.0387 215.277C54.1373 214.368 52.5959 212.747 51.6132 211.674C50.6306 210.601 49.271 209.284 48.5919 208.747C47.9127 208.21 47.0536 207.462 46.6825 207.085C45.9448 206.335 44.6456 203.142 44.9535 202.837C45.0559 202.735 45.8331 203.218 46.6816 203.91C47.5297 204.602 48.7215 205.51 49.3301 205.927C53.0822 208.502 55.7066 210.872 58.3203 214.047C59.0995 214.994 61.8223 217.844 64.371 220.381C66.9197 222.919 69.2091 225.365 69.4585 225.818C69.708 226.271 70.2175 227.13 70.5906 227.726C70.9638 228.323 71.3185 229.233 71.3788 229.749C71.4772 230.591 71.4178 230.752 70.8026 231.31C70.0041 232.033 69.9814 232.156 70.5163 232.848C71.4572 234.066 72.9551 236.306 73.3751 237.124C74.0305 238.399 77.06 243.001 77.7957 243.839C78.1399 244.232 78.555 244.866 78.7181 245.249C78.8813 245.633 79.6431 246.767 80.4112 247.771C81.1793 248.774 82.1519 250.1 82.5726 250.717C82.9932 251.335 83.4653 251.978 83.6216 252.147C84.0266 252.584 86.7245 256.706 86.7245 256.887C86.7245 256.97 87.5076 258.008 88.4648 259.192C89.5846 260.579 90.2079 261.542 90.213 261.895C90.2197 262.383 90.7096 263.33 91.1068 263.624C91.1874 263.684 91.8986 264.686 92.6874 265.852C93.7938 267.488 94.1368 268.181 94.1882 268.889C94.2601 269.877 94.2484 269.884 92.9785 269.624C92.4373 269.513 92.0461 269.534 91.8969 269.683C91.6327 269.945 91.5448 269.943 90.3301 269.647L90.3299 269.647ZM73.5238 267.995C73.4606 267.894 72.6894 267.75 71.8099 267.677C69.4348 267.477 69.356 267.425 66.0757 263.841C65.8027 263.543 65.306 262.762 64.972 262.106C64.6381 261.45 64.089 260.619 63.752 260.26C63.4149 259.901 62.908 259.169 62.6255 258.633C61.0344 255.617 59.7455 253.529 58.2086 251.478C57.7171 250.822 57.129 249.846 56.902 249.309C56.6748 248.772 56.2796 248.04 56.0236 247.682C55.7676 247.324 55.4307 246.717 55.2749 246.333C55.1191 245.95 54.8523 245.521 54.6821 245.381C54.5119 245.24 53.8289 244.188 53.1645 243.042C52.5 241.896 51.5706 240.421 51.099 239.765C50.6275 239.109 49.8963 237.856 49.4741 236.982C49.052 236.108 48.4869 235.086 48.2184 234.712C47.9498 234.337 47.47 233.485 47.152 232.818C46.8341 232.15 46.3316 231.22 46.0355 230.75C45.7394 230.28 45.1769 229.31 44.7854 228.594C44.3939 227.878 43.7024 226.805 43.2486 226.208C42.7949 225.612 42.102 224.44 41.7089 223.605C40.2142 220.43 38.7887 217.488 38.1876 216.339C36.7019 213.498 35.5924 211.225 35.5913 211.021C35.5907 210.9 35.1854 210.119 34.6907 209.286C34.0889 208.272 33.582 206.981 33.1592 205.385C32.8116 204.073 32.343 202.56 32.118 202.023C31.6864 200.993 31.3854 198.121 31.6625 197.676C31.7833 197.482 32.1586 197.565 33.107 197.998C34.3327 198.557 35.1326 198.782 37.362 199.197C39.7682 199.644 40.1192 199.839 40.9171 201.169C41.3296 201.856 41.7373 202.647 41.8231 202.926C41.9089 203.205 42.1062 203.579 42.2614 203.758C42.4167 203.937 42.7141 204.669 42.9222 205.384C43.1304 206.099 43.5276 207.041 43.8048 207.477C44.6926 208.873 46.2577 212.068 46.7114 213.41C47.2211 214.919 50.0566 220.345 51.4133 222.408C52.2692 223.71 53.357 225.496 55.2161 228.652C55.6141 229.328 56.2753 230.345 56.6853 230.911C57.0954 231.478 57.9222 232.913 58.5227 234.101C59.1232 235.289 59.7141 236.322 59.8356 236.396C59.9572 236.471 60.7633 237.723 61.627 239.179C62.4907 240.634 63.6375 242.488 64.1756 243.298C64.7136 244.107 65.3117 245.055 65.5047 245.403C65.8122 245.959 66.6002 247.298 68.1861 249.959C68.4349 250.377 68.9226 251.04 69.27 251.433C69.6172 251.826 70.1987 252.704 70.5622 253.385C70.9256 254.066 71.515 255.062 71.872 255.599C72.2289 256.136 72.723 256.965 72.9699 257.443C73.2168 257.92 73.6544 258.701 73.9424 259.178C74.2303 259.655 74.5936 260.288 74.7496 260.584C74.9057 260.88 75.5012 261.898 76.073 262.845C77.951 265.956 77.8848 267.032 75.7846 267.532C75.1904 267.674 74.6495 267.877 74.5827 267.984C74.4287 268.232 73.676 268.239 73.5239 267.995L73.5238 267.995ZM49.794 265.004C47.8079 264.261 46.7205 263.898 46.0447 263.752C45.4287 263.619 44.0058 261.633 43.3365 259.973C43.1489 259.507 42.7797 258.93 42.516 258.691C42.2523 258.451 41.7415 257.746 41.3809 257.123C41.0204 256.501 40.4058 255.515 40.0152 254.933C39.6246 254.351 39.305 253.826 39.305 253.767C39.305 253.709 38.8742 252.998 38.3477 252.19C37.3261 250.62 34.0605 245.053 34.0605 244.882C34.0605 244.825 33.5335 243.919 32.8894 242.868C32.2453 241.818 31.644 240.714 31.5532 240.416C31.4624 240.117 31.1898 239.483 30.9475 239.006C30.0522 237.242 29.9596 237.037 29.7039 236.248C29.3873 235.271 26.9328 230.46 26.5166 230.001C26.247 229.703 25.9459 229.091 24.3307 225.557C24.058 224.961 23.7093 224.034 23.5557 223.497C23.4021 222.96 23.2034 222.423 23.1141 222.303C23.0248 222.183 22.6839 221.305 22.3566 220.351C22.0292 219.397 21.6939 218.519 21.6114 218.399C21.4029 218.098 20.8409 216.478 20.4076 214.929C20.2073 214.213 19.9031 213.153 19.7315 212.572C19.5599 211.992 19.4195 211.309 19.4194 211.054C19.4193 210.799 19.2767 209.908 19.1026 209.073C18.7518 207.391 18.5917 200.724 18.8681 199.312C19.2106 197.562 19.7135 197.432 23.9908 197.993C26.5133 198.324 26.5006 198.316 27.6502 200.397C28.1003 201.211 28.2558 201.805 28.2749 202.783C28.2889 203.498 28.4815 204.914 28.7029 205.928C28.9243 206.942 29.1796 208.845 29.2702 210.157C29.4898 213.337 29.9913 216.092 30.5471 217.174C30.7968 217.66 31.0025 218.232 31.0043 218.445C31.0088 218.958 31.4841 220.292 32.2718 222.002C32.6232 222.764 32.983 223.73 33.0713 224.148C33.1596 224.565 33.6088 225.639 34.0696 226.534C34.5304 227.429 35.0195 228.468 35.1565 228.843C35.2934 229.218 35.576 229.707 35.7845 229.929C35.9929 230.151 36.4875 230.966 36.8836 231.741C37.2797 232.516 37.6794 233.198 37.772 233.258C37.8645 233.317 38.3576 234.196 38.8678 235.21C40.321 238.099 41.0099 239.357 41.3461 239.738C41.517 239.932 41.7315 240.335 41.8228 240.633C41.9141 240.931 42.2207 241.515 42.5042 241.93C42.7877 242.346 43.0197 242.755 43.0197 242.841C43.0197 242.99 44.259 245.081 45.0387 246.246C45.2477 246.559 45.5379 247.059 45.6836 247.357C45.8292 247.655 46.6169 248.798 47.4341 249.897C48.2512 250.996 48.9197 251.967 48.9197 252.055C48.9197 252.286 49.9475 253.76 51.2392 255.382C51.8568 256.158 52.4231 256.99 52.4978 257.233C52.5724 257.475 52.978 258.203 53.3989 258.852C53.9495 259.7 54.1647 260.277 54.1657 260.906C54.1664 261.414 54.3492 262.054 54.6013 262.432C54.8401 262.79 55.0361 263.257 55.0369 263.47C55.0391 264.114 54.3705 264.926 53.838 264.926C53.5661 264.926 52.9906 265.073 52.5591 265.252C51.5823 265.657 51.527 265.652 49.7939 265.004L49.794 265.004ZM98.4166 228.923C98.3421 228.803 98.5078 228.621 98.785 228.519C100.116 228.029 101.547 227.568 102.239 227.404C102.66 227.305 103.545 227.029 104.206 226.789C104.867 226.551 106.391 226.095 107.593 225.778C108.795 225.461 110.712 224.92 111.854 224.576C112.996 224.232 114.717 223.734 115.678 223.47C116.64 223.206 118.007 222.714 118.718 222.376C119.428 222.038 120.185 221.762 120.401 221.762C120.616 221.762 121.657 221.46 122.715 221.091C125.581 220.091 129.196 219.179 129.43 219.396C129.543 219.5 129.579 219.64 129.512 219.707C129.385 219.833 126.722 220.844 125.949 221.06C125.708 221.126 125.462 221.251 125.402 221.336C125.271 221.521 116.578 224.487 115.022 224.877C114.421 225.027 113.681 225.313 113.377 225.511C113.073 225.709 111.843 226.123 110.645 226.431C109.447 226.739 107.877 227.178 107.156 227.407C103.361 228.613 98.7241 229.417 98.4167 228.923H98.4166ZM91.2898 227.89C90.6387 227.323 89.7304 226.518 89.2714 226.1C88.8124 225.683 88.076 225.092 87.6351 224.787C87.1942 224.482 85.7937 223.205 84.5231 221.948C82.165 219.617 78.663 216.486 76.6713 214.929C75.3886 213.927 74.7609 213.394 73.3896 212.143C72.8461 211.648 71.5679 210.51 70.5493 209.615C69.5307 208.72 68.3037 207.593 67.8227 207.109C67.3417 206.626 66.5655 205.952 66.0978 205.611C65.6302 205.27 64.5552 204.322 63.709 203.503C62.8628 202.684 61.8196 201.752 61.3907 201.431C60.9618 201.11 59.8141 200.147 58.8402 199.291C57.8663 198.435 56.8338 197.613 56.5458 197.464C56.2577 197.314 55.5303 196.789 54.9294 196.295C54.3284 195.801 53.4613 195.122 53.0025 194.784C52.5437 194.446 51.5111 193.585 50.7081 192.87C49.9049 192.155 48.9037 191.343 48.483 191.066C47.3337 190.308 43.4571 186.468 43.4571 186.087C43.4571 185.567 43.6747 185.675 45.4238 187.065C46.3252 187.781 47.8116 188.945 48.7269 189.651C49.6423 190.358 50.7163 191.259 51.1137 191.654C52.5482 193.078 56.9156 196.871 57.7702 197.434C58.2509 197.751 58.7918 198.17 58.972 198.364C59.5398 198.976 62.2472 201.156 62.4398 201.156C62.541 201.156 63.758 202.254 65.1443 203.596C69.0771 207.404 73.9789 211.715 76.4539 213.544C77.2351 214.122 78.4061 215.06 79.0561 215.629C79.7061 216.199 80.9353 217.273 81.7876 218.018C84.9079 220.742 85.9443 221.685 87.4656 223.183C88.3199 224.024 89.9584 225.358 91.1069 226.146C93.608 227.865 93.8779 228.141 93.4985 228.594C93.0469 229.135 92.5319 228.97 91.2901 227.89H91.2898ZM95.515 209.615C94.6971 209.12 93.6877 207.642 93.0784 206.047C92.8483 205.445 92.4185 204.415 92.1233 203.759C91.4321 202.223 91.1344 200.289 91.5892 200.289C91.8954 200.289 94.7897 204.485 95.3016 205.671C95.4398 205.992 95.7172 206.498 95.9181 206.796C96.119 207.094 96.338 207.68 96.4048 208.097C96.4716 208.515 96.5939 209.125 96.6766 209.453C96.8613 210.186 96.5336 210.232 95.515 209.615L95.515 209.615ZM115.796 195.042C115.551 194.781 115.338 194.39 115.323 194.174C115.308 193.958 115.271 193.683 115.241 193.564C115.211 193.445 115.174 190.858 115.159 187.816C115.136 183.043 115.087 182.285 114.802 182.285C114.621 182.285 113.768 182.872 112.907 183.59C112.046 184.308 111.039 184.973 110.669 185.068C110.3 185.163 109.968 185.39 109.933 185.573C109.872 185.886 111.492 187.262 113.051 188.223C113.722 188.636 114.03 188.973 114.036 189.298C114.041 189.579 112.683 189.217 112.039 188.765C111.72 188.542 111.392 188.358 111.309 188.358C111.145 188.358 108.914 186.652 105.355 183.803C104.088 182.789 102.451 181.531 101.717 181.006C99.8392 179.666 97.4836 177.736 96.0765 176.385C92.3382 172.798 89.7389 170.558 88.0654 169.48C87.0273 168.812 86.0411 168.099 85.8737 167.895C85.4912 167.43 85.7468 167.141 86.2431 167.478C86.4477 167.616 87.3034 168.142 88.1447 168.646C91.2834 170.526 92.8205 171.75 96.1207 174.995C97.9836 176.827 99.8784 178.574 100.331 178.878C100.785 179.181 101.473 179.687 101.861 180.001C104.702 182.3 105.049 182.452 105.456 181.58C105.593 181.287 106.425 180.72 107.542 180.16C110.514 178.668 114.294 175.644 116.334 173.125C116.889 172.439 117.234 172.254 118.594 171.913C119.871 171.594 120.308 171.374 120.728 170.841C121.019 170.473 121.771 169.803 122.401 169.354C123.03 168.904 123.952 168.173 124.449 167.729C124.946 167.285 125.672 166.758 126.062 166.557C126.675 166.243 129.522 163.748 133.649 159.91C136.274 157.469 138.025 154.861 139.223 151.609C140.274 148.756 140.491 147.635 140.466 145.194C140.434 142.086 140.424 142.157 140.894 142.157C141.507 142.157 142.045 143.697 142.144 145.736C142.228 147.466 142.08 148.594 141.42 151.268L141.072 152.677L141.856 154.751C142.442 156.299 142.652 157.205 142.684 158.33C142.728 159.863 142.43 161.627 141.984 162.475C141.616 163.175 141.899 164.357 143.025 166.817C143.641 168.164 143.748 170.65 143.219 171.344C143.042 171.576 142.895 172.117 142.891 172.547C142.885 173.259 143.001 173.41 144.182 174.233C145.625 175.238 147.011 176.726 147.13 177.399C147.592 180.002 147.963 182.736 148.067 184.292C148.188 186.118 148.176 186.189 147.731 186.189C147.052 186.189 146.885 185.679 146.74 183.153C146.474 178.544 145.932 176.976 144.228 175.889C143.669 175.532 142.711 174.8 142.098 174.262C139.167 171.688 139.229 171.711 136.539 172.2C134.802 172.517 134.253 172.704 134.018 173.06C133.784 173.416 133.7 175.091 133.636 180.774C133.591 184.767 133.479 188.204 133.388 188.413C133.216 188.808 132.508 188.933 132.304 188.605C132.069 188.228 131.95 173.121 132.179 172.847C132.535 172.421 132.234 172.001 131.354 171.695C129.379 171.008 128.971 170.949 127.259 171.106C125.565 171.262 125.484 171.296 124.6 172.207C123.835 172.997 123.665 173.336 123.54 174.331C123.458 174.982 123.447 175.696 123.515 175.918C124.034 177.614 124.559 190.784 124.118 191.054C123.813 191.241 123.271 190.98 123.106 190.566C122.924 190.108 122.618 185.617 122.461 181.093C122.395 179.184 122.262 177.28 122.166 176.863C122.069 176.445 122.046 175.389 122.115 174.516C122.184 173.642 122.176 172.824 122.096 172.696C121.955 172.47 118.829 172.61 117.893 172.884C117.653 172.954 117.184 173.652 116.749 174.587L116.012 176.171L116.214 181.235C116.622 191.459 116.693 195.517 116.464 195.517C116.342 195.517 116.041 195.303 115.796 195.042L115.796 195.042ZM117.194 153.133C117.099 152.758 117.206 152.339 117.532 151.816C118.077 150.94 118.755 150.746 118.503 151.539C117.819 153.687 117.448 154.139 117.194 153.133V153.133ZM120.377 145.847C120.196 145.732 119.531 145.523 118.899 145.381C117.563 145.082 117.125 144.709 117.536 144.218C118.095 143.549 120.02 144.012 121 145.051C121.721 145.814 121.256 146.406 120.376 145.847H120.377ZM67.9566 122.831C67.4781 121.469 67.7348 118.731 68.3412 118.731C68.6469 118.731 69.0618 120.96 68.9868 122.2C68.9328 123.093 68.8253 123.408 68.5575 123.458C68.3221 123.503 68.1173 123.289 67.9566 122.831V122.831ZM117.429 123.074C117.356 122.957 117.363 121.905 117.444 120.735C117.583 118.735 117.559 118.546 117.036 117.532C116.292 116.087 115.1 115.028 113.384 114.288C112.602 113.951 111.767 113.55 111.526 113.398C110.86 112.976 107.405 113.324 106.285 113.925C104.732 114.76 103.391 114.466 102.808 113.164C102.604 112.707 102.335 112.15 102.21 111.927C101.849 111.28 101.719 109.314 102.001 108.789C102.196 108.429 102.456 108.32 103.121 108.32C103.705 108.32 104.134 108.174 104.438 107.873C105.034 107.281 105.572 107.415 105.812 108.214C106.207 109.529 106.914 110.93 107.141 110.846C107.269 110.799 107.341 110.626 107.301 110.462C107.113 109.699 107.096 108.532 107.271 108.425C107.378 108.359 107.671 108.431 107.922 108.584C108.321 108.828 108.426 108.798 108.777 108.34C109.358 107.58 109.887 107.866 109.887 108.94C109.887 109.472 110.05 109.982 110.322 110.302L110.756 110.814L111.156 110.307C111.523 109.844 111.677 109.81 112.962 109.917C116.435 110.205 117.964 110.939 119.678 113.145C120.601 114.333 121.032 115.216 121.032 115.919C121.032 116.548 120.497 116.219 120.202 115.408C119.434 113.299 115.728 110.706 113.483 110.706C112.331 110.706 112.446 111.489 113.766 112.642C116.854 115.338 117.591 116.319 118.313 118.701C118.891 120.605 118.155 124.24 117.429 123.074L117.429 123.074ZM108.428 121.594C106.825 120.948 104.618 118.043 104.317 116.183C104.131 115.036 104.503 114.943 104.958 116.023C105.422 117.125 105.844 117.187 106.789 116.292C108.401 114.762 109.533 114.561 111.269 115.494C112.724 116.277 113.165 116.969 113.165 118.472C113.165 119.778 112.537 120.795 111.301 121.49C110.274 122.068 109.659 122.09 108.428 121.594L108.428 121.594ZM111.238 119.979C111.58 119.502 111.744 118.969 111.744 118.333C111.745 116.992 110.963 116.346 109.341 116.346C107.874 116.346 107.483 116.785 107.483 118.435C107.483 119.426 107.564 119.628 108.156 120.122C108.654 120.538 109.075 120.684 109.78 120.684C110.604 120.684 110.799 120.589 111.238 119.979L111.238 119.979ZM109.013 119.537C108.639 119.35 108.446 119.052 108.4 118.591C108.313 117.705 108.855 117.169 109.751 117.256C110.391 117.317 110.438 117.381 110.503 118.29C110.555 119.019 110.477 119.327 110.188 119.537C109.719 119.877 109.694 119.877 109.013 119.537L109.013 119.537ZM126.712 110.574C126.167 110.237 125.83 109.79 123.301 106.041C121.562 103.462 120.818 102.774 118.497 101.596C116.697 100.682 116.446 100.615 114.57 100.545C113.034 100.488 112.405 100.553 111.879 100.823C111.37 101.084 110.907 101.138 110.094 101.031C108.891 100.873 108.748 100.496 109.809 100.281C110.169 100.208 110.752 99.9925 111.104 99.8024C112.177 99.2231 113.194 98.9758 115.022 98.8491C116.596 98.74 116.966 98.7958 118.733 99.408C119.813 99.782 121.042 100.313 121.465 100.587C121.887 100.862 122.665 101.37 123.193 101.717C123.721 102.064 124.894 103.082 125.801 103.978C127.091 105.254 127.629 105.992 128.282 107.375C129.244 109.412 129.319 110.106 128.631 110.585C128.02 111.009 127.413 111.006 126.712 110.574H126.712ZM139.478 82.1393C138.447 80.797 137.825 78.6021 137.697 75.8507C137.568 73.057 137.688 72.3128 138.272 72.3128C138.75 72.3128 139.021 72.9394 139.395 74.9158C139.765 76.8646 140.596 80.0318 141.052 81.2208C141.496 82.3826 141.357 82.9413 140.621 82.9413C140.27 82.9413 139.888 82.6734 139.478 82.1393H139.478ZM133.913 81.0919C132.706 79.8675 132.078 79.6182 130.615 79.7824C129.131 79.949 127.47 79.4943 126.969 78.7843C126.696 78.3981 126.509 78.3571 125.578 78.4798C124.607 78.6076 124.412 78.5567 123.597 77.9616C123.1 77.5987 122.436 77.3017 122.121 77.3017C121.773 77.3017 121.307 77.0501 120.926 76.6559C120.469 76.1821 120.171 76.0429 119.808 76.1334C119.536 76.2012 118.784 76.104 118.137 75.9174C117.245 75.6599 116.794 75.3706 116.264 74.7161C115.4 73.6491 115.162 73.0545 114.811 71.0916C114.573 69.7624 114.586 69.244 114.903 67.4042C115.423 64.3845 116.129 62.9206 117.098 62.8553C117.278 62.8431 117.696 62.8187 118.026 62.8011C118.357 62.7834 118.825 62.5732 119.066 62.3339C119.422 61.9806 119.724 61.9141 120.679 61.9799C122.124 62.0796 122.248 62.1528 122.562 63.0974C122.7 63.5133 122.936 63.8535 123.087 63.8535C123.237 63.8535 123.678 63.4143 124.067 62.8774C125.019 61.5617 125.594 61.6168 125.958 63.0588C126.193 63.9867 126.647 64.005 127.557 63.1234C128.494 62.2152 128.684 62.1748 129.226 62.769C129.487 63.0554 129.899 63.2028 130.438 63.2028C131.299 63.2028 131.52 63.4479 131.52 64.4007C131.52 65.3255 131.924 65.1859 132.69 63.996C133.562 62.6438 136.413 60.1092 136.948 60.2104C137.148 60.2481 137.341 60.4896 137.378 60.7469C137.45 61.2418 136.537 63.2307 135.903 63.9619C134.787 65.2495 133.563 68.3676 133.268 70.677C133.027 72.5569 133.496 76.2379 134.181 77.844C134.435 78.4405 134.781 79.2702 134.95 79.6877C135.118 80.1052 135.348 80.6139 135.46 80.8179C135.728 81.3042 135.503 81.8567 135.037 81.8567C134.834 81.8567 134.328 81.5125 133.913 81.0919L133.913 81.0919Z" fill="#C4C4C4"/>
</svg>
