<svg width="400" height="600" viewBox="0 0 400 600" fill="none" xmlns="http://www.w3.org/2000/svg">
<rect width="400" height="600" fill="white"/>
<rect width="400" height="600" rx="5" fill="#E5E5E5"/>
<path d="M129 353V205.915H167.199V323.084H271V353H129Z" fill="#C4C4C4"/>
<path d="M271 176H129V205.915H187.129V323.084H224.497V205.915H271V176Z" fill="#C4C4C4"/>
<path d="M89.8516 412H83.0547V402.25H74.6406V412H67.8672V386.641H74.6406V396.812H83.0547V386.641H89.8516V412ZM106.773 412.469C103.055 412.469 100.023 411.328 97.6797 409.047C95.3516 406.766 94.1875 403.727 94.1875 399.93V399.273C94.1875 396.727 94.6797 394.453 95.6641 392.453C96.6484 390.438 98.0391 388.891 99.8359 387.812C101.648 386.719 103.711 386.172 106.023 386.172C109.492 386.172 112.219 387.266 114.203 389.453C116.203 391.641 117.203 394.742 117.203 398.758V401.523H101.055C101.273 403.18 101.93 404.508 103.023 405.508C104.133 406.508 105.531 407.008 107.219 407.008C109.828 407.008 111.867 406.062 113.336 404.172L116.664 407.898C115.648 409.336 114.273 410.461 112.539 411.273C110.805 412.07 108.883 412.469 106.773 412.469ZM106 391.656C104.656 391.656 103.562 392.109 102.719 393.016C101.891 393.922 101.359 395.219 101.125 396.906H110.547V396.367C110.516 394.867 110.109 393.711 109.328 392.898C108.547 392.07 107.438 391.656 106 391.656ZM141.836 392.078H133.703V412H126.906V392.078H118.914V386.641H141.836V392.078ZM179.266 412H172.469V392.125H163.984V412H157.211V386.641H179.266V412ZM183.391 399.086C183.391 396.57 183.875 394.328 184.844 392.359C185.812 390.391 187.203 388.867 189.016 387.789C190.844 386.711 192.961 386.172 195.367 386.172C198.789 386.172 201.578 387.219 203.734 389.312C205.906 391.406 207.117 394.25 207.367 397.844L207.414 399.578C207.414 403.469 206.328 406.594 204.156 408.953C201.984 411.297 199.07 412.469 195.414 412.469C191.758 412.469 188.836 411.297 186.648 408.953C184.477 406.609 183.391 403.422 183.391 399.391V399.086ZM190.164 399.578C190.164 401.984 190.617 403.828 191.523 405.109C192.43 406.375 193.727 407.008 195.414 407.008C197.055 407.008 198.336 406.383 199.258 405.133C200.18 403.867 200.641 401.852 200.641 399.086C200.641 396.727 200.18 394.898 199.258 393.602C198.336 392.305 197.039 391.656 195.367 391.656C193.711 391.656 192.43 392.305 191.523 393.602C190.617 394.883 190.164 396.875 190.164 399.578ZM222.133 407.008C223.383 407.008 224.398 406.664 225.18 405.977C225.961 405.289 226.367 404.375 226.398 403.234H232.75C232.734 404.953 232.266 406.531 231.344 407.969C230.422 409.391 229.156 410.5 227.547 411.297C225.953 412.078 224.188 412.469 222.25 412.469C218.625 412.469 215.766 411.32 213.672 409.023C211.578 406.711 210.531 403.523 210.531 399.461V399.016C210.531 395.109 211.57 391.992 213.648 389.664C215.727 387.336 218.578 386.172 222.203 386.172C225.375 386.172 227.914 387.078 229.82 388.891C231.742 390.688 232.719 393.086 232.75 396.086H226.398C226.367 394.773 225.961 393.711 225.18 392.898C224.398 392.07 223.367 391.656 222.086 391.656C220.508 391.656 219.312 392.234 218.5 393.391C217.703 394.531 217.305 396.391 217.305 398.969V399.672C217.305 402.281 217.703 404.156 218.5 405.297C219.297 406.438 220.508 407.008 222.133 407.008ZM257.664 392.078H249.531V412H242.734V392.078H234.742V386.641H257.664V392.078ZM271.258 412.469C267.539 412.469 264.508 411.328 262.164 409.047C259.836 406.766 258.672 403.727 258.672 399.93V399.273C258.672 396.727 259.164 394.453 260.148 392.453C261.133 390.438 262.523 388.891 264.32 387.812C266.133 386.719 268.195 386.172 270.508 386.172C273.977 386.172 276.703 387.266 278.688 389.453C280.688 391.641 281.688 394.742 281.688 398.758V401.523H265.539C265.758 403.18 266.414 404.508 267.508 405.508C268.617 406.508 270.016 407.008 271.703 407.008C274.312 407.008 276.352 406.062 277.82 404.172L281.148 407.898C280.133 409.336 278.758 410.461 277.023 411.273C275.289 412.07 273.367 412.469 271.258 412.469ZM270.484 391.656C269.141 391.656 268.047 392.109 267.203 393.016C266.375 393.922 265.844 395.219 265.609 396.906H275.031V396.367C275 394.867 274.594 393.711 273.812 392.898C273.031 392.07 271.922 391.656 270.484 391.656ZM308.383 399.555C308.383 403.461 307.492 406.594 305.711 408.953C303.945 411.297 301.555 412.469 298.539 412.469C295.977 412.469 293.906 411.578 292.328 409.797V421.75H285.555V386.641H291.836L292.07 389.125C293.711 387.156 295.852 386.172 298.492 386.172C301.617 386.172 304.047 387.328 305.781 389.641C307.516 391.953 308.383 395.141 308.383 399.203V399.555ZM301.609 399.062C301.609 396.703 301.188 394.883 300.344 393.602C299.516 392.32 298.305 391.68 296.711 391.68C294.586 391.68 293.125 392.492 292.328 394.117V404.5C293.156 406.172 294.633 407.008 296.758 407.008C299.992 407.008 301.609 404.359 301.609 399.062ZM327.297 412C326.984 411.391 326.758 410.633 326.617 409.727C324.977 411.555 322.844 412.469 320.219 412.469C317.734 412.469 315.672 411.75 314.031 410.312C312.406 408.875 311.594 407.062 311.594 404.875C311.594 402.188 312.586 400.125 314.57 398.688C316.57 397.25 319.453 396.523 323.219 396.508H326.336V395.055C326.336 393.883 326.031 392.945 325.422 392.242C324.828 391.539 323.883 391.188 322.586 391.188C321.445 391.188 320.547 391.461 319.891 392.008C319.25 392.555 318.93 393.305 318.93 394.258H312.156C312.156 392.789 312.609 391.43 313.516 390.18C314.422 388.93 315.703 387.953 317.359 387.25C319.016 386.531 320.875 386.172 322.938 386.172C326.062 386.172 328.539 386.961 330.367 388.539C332.211 390.102 333.133 392.305 333.133 395.148V406.141C333.148 408.547 333.484 410.367 334.141 411.602V412H327.297ZM321.695 407.289C322.695 407.289 323.617 407.07 324.461 406.633C325.305 406.18 325.93 405.578 326.336 404.828V400.469H323.805C320.414 400.469 318.609 401.641 318.391 403.984L318.367 404.383C318.367 405.227 318.664 405.922 319.258 406.469C319.852 407.016 320.664 407.289 321.695 407.289Z" fill="#C4C4C4"/>
</svg>
